<svg width="24" height="24" viewBox="0 0 24 24" fill="none" xmlns="http://www.w3.org/2000/svg">
<path d="M19.6305 17.6797C20.5171 17.207 21.2175 16.459 21.6211 15.5537C22.0247 14.6485 22.1086 13.6376 21.8596 12.6805C21.6105 11.7235 21.0426 10.8748 20.2456 10.2684C19.4486 9.66205 18.4677 9.33254 17.458 9.33189H16.3126C16.0375 8.29107 15.5247 7.3248 14.8127 6.50571C14.1008 5.68663 13.2082 5.03605 12.2022 4.60288C11.1961 4.16972 10.1028 3.96524 9.00431 4.00482C7.90583 4.0444 6.83082 4.32702 5.86011 4.83141C4.88939 5.33581 4.04821 6.04886 3.39983 6.91696C2.75144 7.78506 2.31272 8.78562 2.11664 9.84342C1.92055 10.9012 1.97222 11.9887 2.26774 13.0242C2.56327 14.0596 3.09497 15.0161 3.82286 15.8217M15.6401 15.5549L12.004 11.9989M12.004 11.9989L8.36802 15.5549M12.004 11.9989L12.0048 20" stroke="#313944" stroke-width="1.5" stroke-linecap="round" stroke-linejoin="round"/>
</svg>
