<svg width="24" height="24" viewBox="0 0 24 24" fill="none" xmlns="http://www.w3.org/2000/svg">
<path d="M9 20H16M5 17H19C20.1046 17 21 16.1046 21 15V6C21 4.89543 20.1046 4 19 4H5C3.89543 4 3 4.89543 3 6V15C3 16.1046 3.89543 17 5 17Z" stroke="#313944" stroke-width="1.5" stroke-linecap="round" stroke-linejoin="round"/>
<path d="M8.42043 9.65637C8.39205 9.55656 8.35032 9.46863 8.29523 9.39259C8.24014 9.31496 8.17254 9.24921 8.09241 9.19534C8.01228 9.14148 7.92047 9.10108 7.81697 9.07414C7.71347 9.04563 7.59996 9.03137 7.47643 9.03137C7.2277 9.03137 7.01236 9.0884 6.83041 9.20247C6.65012 9.31654 6.51073 9.48289 6.41224 9.70152C6.31375 9.91857 6.26451 10.1824 6.26451 10.4929C6.26451 10.805 6.31208 11.0711 6.40723 11.2913C6.50239 11.5116 6.6401 11.6795 6.82039 11.7952C7.00068 11.9108 7.21936 11.9686 7.47643 11.9686C7.70346 11.9686 7.89543 11.9338 8.05235 11.8641C8.21093 11.7928 8.33112 11.6922 8.41292 11.5623C8.49471 11.4324 8.53561 11.2795 8.53561 11.1036L8.76598 11.1298H7.519V10.2719H9.73001V10.9159C9.73001 11.3516 9.63235 11.7247 9.43704 12.0352C9.2434 12.3457 8.97631 12.5841 8.63577 12.7505C8.2969 12.9168 7.90711 13 7.46642 13C6.97731 13 6.54746 12.8994 6.17687 12.6982C5.80628 12.497 5.51749 12.2102 5.31049 11.8379C5.1035 11.464 5 11.0204 5 10.5071C5 10.1079 5.0626 9.7538 5.1878 9.44487C5.313 9.13435 5.48744 8.87136 5.71113 8.65589C5.93649 8.44043 6.1969 8.27725 6.49237 8.16635C6.78951 8.05545 7.10918 8 7.45139 8C7.74853 8 8.0248 8.0404 8.28021 8.1212C8.53728 8.202 8.76431 8.31606 8.96129 8.4634C9.15994 8.61074 9.32103 8.7858 9.44456 8.98859C9.56809 9.19138 9.64487 9.41397 9.67492 9.65637H8.42043Z" fill="#313944"/>
<path d="M13.0914 9.52567C13.0747 9.35139 13.0004 9.21594 12.8686 9.1193C12.7384 9.02107 12.5522 8.97196 12.3102 8.97196C12.1499 8.97196 12.0164 8.99176 11.9095 9.03137C11.8027 9.07098 11.7226 9.12563 11.6692 9.19534C11.6157 9.26347 11.5882 9.34189 11.5865 9.43061C11.5832 9.50349 11.5982 9.56765 11.6316 9.6231C11.6667 9.67855 11.7167 9.72766 11.7818 9.77044C11.8486 9.81163 11.9287 9.84807 12.0222 9.87975C12.1157 9.91144 12.2209 9.93916 12.3377 9.96293L12.7784 10.058C13.0322 10.1103 13.2558 10.18 13.4495 10.2671C13.6448 10.3542 13.8084 10.458 13.9403 10.5784C14.0738 10.6988 14.1748 10.8375 14.2432 10.9943C14.3117 11.1511 14.3467 11.327 14.3484 11.5219C14.3467 11.8292 14.265 12.093 14.103 12.3132C13.9411 12.5334 13.7082 12.7022 13.4044 12.8194C13.1023 12.9366 12.7375 12.9952 12.3102 12.9952C11.8812 12.9952 11.5072 12.9343 11.1884 12.8123C10.8696 12.6903 10.6217 12.5049 10.4447 12.2562C10.2678 12.0074 10.1768 11.693 10.1718 11.3127H11.3587C11.3687 11.4696 11.4129 11.6003 11.4914 11.7048C11.5698 11.8094 11.6775 11.8886 11.8144 11.9425C11.9529 11.9964 12.1132 12.0233 12.2952 12.0233C12.4621 12.0233 12.604 12.0019 12.7208 11.9591C12.8394 11.9163 12.9303 11.8569 12.9938 11.7809C13.0572 11.7048 13.0898 11.6177 13.0914 11.5195C13.0898 11.4276 13.0597 11.3492 13.0013 11.2842C12.9429 11.2177 12.8527 11.1606 12.7308 11.1131C12.6107 11.064 12.4571 11.0189 12.2701 10.9777L11.7343 10.8588C11.2902 10.7622 10.9405 10.6061 10.6851 10.3907C10.4297 10.1736 10.3028 9.88054 10.3045 9.51141C10.3028 9.21039 10.388 8.94661 10.5599 8.72006C10.7318 8.4935 10.9697 8.31686 11.2735 8.19011C11.5774 8.06337 11.9237 8 12.3127 8C12.71 8 13.0547 8.06416 13.3468 8.19249C13.6406 8.31923 13.8685 8.49747 14.0304 8.72719C14.1923 8.95691 14.275 9.22307 14.2783 9.52567H13.0914Z" fill="#313944"/>
<path d="M14.6656 9.02186V8.06654H19V9.02186H17.445V12.9335H16.2231V9.02186H14.6656Z" fill="#313944"/>
</svg>
