<svg width="24" height="24" viewBox="0 0 24 24" fill="none" xmlns="http://www.w3.org/2000/svg">
<path d="M3 6.40541L5.91892 3H18.0811L21 6.40541M3 6.40541V9.32432C3 9.86168 3.43561 10.2973 3.97297 10.2973V10.2973M3 6.40541H21M21 6.40541V9.32432C21 9.86168 20.5644 10.2973 20.027 10.2973V10.2973M3.97297 10.2973V18C3.97297 19.6569 5.31612 21 6.97297 21H9.32432M3.97297 10.2973C3.97297 10.2973 6.63552 9.13492 8.4 9.3C9.89496 9.43986 10.5001 10.7192 12 10.65C13.3369 10.5883 13.8 9.3 15.6 9.3C17.4 9.3 20.027 10.2973 20.027 10.2973M20.027 10.2973V18C20.027 19.6569 18.6839 21 17.027 21H14.6757M9.32432 21V13.7027H14.6757V21M9.32432 21H14.6757" stroke="#313944" stroke-width="1.5" stroke-linejoin="round"/>
</svg>
