<svg width="24" height="24" viewBox="0 0 24 24" fill="none" xmlns="http://www.w3.org/2000/svg">
<path d="M12 20L3.16925 9.4031C2.50704 8.60845 2.56004 7.43996 3.29148 6.70852L5.41421 4.58579C5.78929 4.21071 6.29799 4 6.82843 4H10M12 20L20.8307 9.4031C21.493 8.60845 21.44 7.43996 20.7085 6.70852L18.5858 4.58579C18.2107 4.21071 17.702 4 17.1716 4H14M12 20L8.26089 9.71745C8.09288 9.25541 8.10093 8.74767 8.28353 8.29119L10 4M12 20L15.7391 9.71745C15.9071 9.25541 15.8991 8.74767 15.7165 8.29119L14 4M14 4H10" stroke="#313944" stroke-width="1.5" stroke-miterlimit="10" stroke-linecap="round" stroke-linejoin="round"/>
</svg>
