<svg width="24" height="24" viewBox="0 0 24 24" fill="none" xmlns="http://www.w3.org/2000/svg">
<path d="M9 21H15M9 21V12.6C9 12.2686 9.26863 12 9.6 12H14.4C14.7314 12 15 12.2686 15 12.6V21M9 21V16.1C9 15.7686 8.73137 15.5 8.4 15.5H3.6C3.26863 15.5 3 15.7686 3 16.1V20.4C3 20.7314 3.26863 21 3.6 21H9ZM15 21H20.4C20.7314 21 21 20.7314 21 20.4V18.1C21 17.7686 20.7314 17.5 20.4 17.5H15.6C15.2686 17.5 15 17.7686 15 18.1V21ZM10.8056 4.11325L11.7147 2.1856C11.8314 1.93813 12.1686 1.93813 12.2853 2.1856L13.1944 4.11325L15.2275 4.42427C15.4884 4.46418 15.5923 4.79977 15.4035 4.99229L13.9326 6.4917L14.2797 8.60999C14.3243 8.88202 14.0515 9.08946 13.8181 8.96099L12 7.96031L10.1819 8.96099C9.94851 9.08946 9.67568 8.88202 9.72026 8.60999L10.0674 6.4917L8.59651 4.99229C8.40766 4.79977 8.51163 4.46418 8.77248 4.42427L10.8056 4.11325Z" stroke="#313944" stroke-width="1.5" stroke-linecap="round" stroke-linejoin="round"/>
</svg>
