<svg width="24" height="24" viewBox="0 0 24 24" fill="none" xmlns="http://www.w3.org/2000/svg">
<path d="M2 9V15.8C2 16.9201 2 17.4802 2.21799 17.908C2.40973 18.2843 2.71569 18.5903 3.09202 18.782C3.51984 19 4.0799 19 5.2 19H18.8C19.9201 19 20.4802 19 20.908 18.782C21.2843 18.5903 21.5903 18.2843 21.782 17.908C22 17.4802 22 16.9201 22 15.8V9M2 9V8.2C2 7.0799 2 6.51984 2.21799 6.09202C2.40973 5.71569 2.71569 5.40973 3.09202 5.21799C3.51984 5 4.07989 5 5.2 5H18.8C19.9201 5 20.4802 5 20.908 5.21799C21.2843 5.40973 21.5903 5.71569 21.782 6.09202C22 6.51984 22 7.0799 22 8.2V9M2 9H22M6 14H11" stroke="#313944" stroke-width="1.5" stroke-linecap="round" stroke-linejoin="round"/>
</svg>
