<svg width="24" height="24" viewBox="0 0 24 24" fill="none" xmlns="http://www.w3.org/2000/svg">
<path d="M12 7.55556V22M4.22222 12H19.7778M4.22222 12C2.99492 12 2 11.0051 2 9.77778C2 8.55048 2.99492 7.55556 4.22222 7.55556H19.7778C21.0051 7.55556 22 8.55048 22 9.77778C22 11.0051 21.0051 12 19.7778 12M4.22222 12V19.7778C4.22222 21.0051 5.21714 22 6.44444 22H17.5556C18.7829 22 19.7778 21.0051 19.7778 19.7778V12M12 7.55556C12 7.55556 12 5.89691 12 5.33333C12 4.10603 12.9949 3.11111 14.2222 3.11111C15.4496 3.11111 16.4444 4.10603 16.4444 5.33333C16.4444 6.56063 15.4496 7.55556 14.2222 7.55556C13.5586 7.55556 12 7.55556 12 7.55556ZM12 7.55556C12 7.55556 12 5.40323 12 4.77778C12 3.24366 10.7563 2 9.22222 2C7.6881 2 6.44444 3.24366 6.44444 4.77778C6.44444 6.3119 7.6881 7.55556 9.22222 7.55556C10.1309 7.55556 12 7.55556 12 7.55556Z" stroke="#313944" stroke-width="1.5" stroke-linecap="round"/>
</svg>
