<svg width="24" height="24" viewBox="0 0 24 24" fill="none" xmlns="http://www.w3.org/2000/svg">
<path d="M6 21V3H12.6057C13.8857 3 14.9456 3.21094 15.7852 3.63281C16.6249 4.04883 17.2532 4.61426 17.6701 5.3291C18.0869 6.03809 18.2954 6.83789 18.2954 7.72852C18.2954 8.47852 18.1574 9.11133 17.8814 9.62695C17.6055 10.1367 17.2355 10.5469 16.7717 10.8574C16.3137 11.1621 15.8087 11.3848 15.2568 11.5254V11.7012C15.8557 11.7305 16.4399 11.9238 17.0095 12.2812C17.5849 12.6328 18.0605 13.1338 18.4363 13.7842C18.8121 14.4346 19 15.2256 19 16.1572C19 17.0771 18.7827 17.9033 18.3482 18.6357C17.9196 19.3623 17.2561 19.9395 16.3577 20.3672C15.4593 20.7891 14.3114 21 12.914 21H6ZM8.72154 18.6709H12.6497C13.9533 18.6709 14.8869 18.4189 15.4505 17.915C16.0142 17.4111 16.2961 16.7812 16.2961 16.0254C16.2961 15.457 16.1522 14.9355 15.8645 14.4609C15.5768 13.9863 15.1658 13.6084 14.6314 13.3271C14.103 13.0459 13.4747 12.9053 12.7466 12.9053H8.72154V18.6709ZM8.72154 10.7871H12.3679C12.9785 10.7871 13.5276 10.6699 14.0149 10.4355C14.5081 10.2012 14.8986 9.87305 15.1863 9.45117C15.4799 9.02344 15.6267 8.51953 15.6267 7.93945C15.6267 7.19531 15.3654 6.57129 14.8428 6.06738C14.3202 5.56348 13.5187 5.31152 12.4383 5.31152H8.72154V10.7871Z" fill="#313944"/>
</svg>
