<svg width="24" height="24" viewBox="0 0 24 24" fill="none" xmlns="http://www.w3.org/2000/svg">
<path d="M17.2105 20.2677C12 22.5 3 21 3 12.1875C3 -0.0622177 21 0.684977 21 11.0002C21 18.7365 16 17.0002 16 14.0002C16 13.6505 15.96 11.9594 15.96 11.5426M15.96 11.5426C15.96 10.5066 15.96 8.12714 15.96 7.52016V11.5426ZM15.96 11.5426C15.96 9.60853 14.52 7.52016 11.64 7.52016C5.84211 7.52016 5.84211 16.2828 11.64 16.2828C14.52 16.2828 15.96 14.069 15.96 11.5426ZM15.96 11.5426C15.96 10.4929 15.96 12.6391 15.96 11.5426Z" stroke="#313944" stroke-width="1.5" stroke-linecap="round" stroke-linejoin="round"/>
</svg>
