<svg width="24" height="24" viewBox="0 0 24 24" fill="none" xmlns="http://www.w3.org/2000/svg">
<path d="M5.70589 13.6429H7.75121C8.3357 13.6429 8.90746 13.8136 9.39624 14.1341L11.0888 15.2439C11.4147 15.4576 11.7958 15.5714 12.1855 15.5714H13.8319C14.542 15.5714 15.1177 16.1471 15.1177 16.8571V16.8571M11.5882 18.1429H13.8319C14.542 18.1429 15.1177 17.5672 15.1177 16.8571V16.8571M15.1177 16.8571L19.4946 15.7942C20.0095 15.6691 20.5325 15.9674 20.6871 16.4742L20.7555 16.6982C20.8969 17.1621 20.6853 17.6605 20.2533 17.8808L12.9519 21.6046C12.4573 21.8568 11.8802 21.8921 11.3586 21.7021L6.88236 20.0714H5.70589M14.5 3.66667H10.75C10.2859 3.66667 9.84075 3.84226 9.51256 4.15482C9.18437 4.46738 9 4.89131 9 5.33333C9 5.77536 9.18437 6.19928 9.51256 6.51184C9.84075 6.82441 10.2859 7 10.75 7H13.25C13.7141 7 14.1592 7.17559 14.4874 7.48816C14.8156 7.80072 15 8.22464 15 8.66667C15 9.10869 14.8156 9.53262 14.4874 9.84518C14.1592 10.1577 13.7141 10.3333 13.25 10.3333H9M12 2V12M4.76991 20.7143V20.7143C5.28684 20.7143 5.70589 20.2952 5.70589 19.7783V14C5.70589 13.4477 5.25818 13 4.70589 13H4.12942C3.5291 13 3.06408 13.5252 3.13678 14.1211L3.84081 19.8917C3.89811 20.3613 4.29682 20.7143 4.76991 20.7143Z" stroke="#313944" stroke-width="1.5" stroke-linecap="round"/>
</svg>
