<svg width="24" height="24" viewBox="0 0 24 24" fill="none" xmlns="http://www.w3.org/2000/svg">
<path d="M7.46467 6.67898C7.91874 6.68229 8.36618 6.76515 8.807 6.92756C9.24781 7.08996 9.64554 7.35511 10.0002 7.72301C10.3581 8.09091 10.6432 8.58807 10.8553 9.21449C11.0707 9.83759 11.1801 10.6132 11.1834 11.5412C11.1834 12.4328 11.0939 13.2266 10.915 13.9226C10.736 14.6153 10.4791 15.2003 10.1444 15.6776C9.81291 16.1548 9.41022 16.5178 8.93626 16.7663C8.4623 17.0149 7.92868 17.1392 7.3354 17.1392C6.72887 17.1392 6.19028 17.0199 5.71964 16.7812C5.24899 16.5426 4.86618 16.2128 4.5712 15.7919C4.27622 15.3677 4.09227 14.8804 4.01935 14.3303H5.53569C5.63512 14.7678 5.8373 15.1224 6.14222 15.3942C6.45046 15.6626 6.84819 15.7969 7.3354 15.7969C8.08114 15.7969 8.66282 15.4721 9.08043 14.8224C9.49805 14.1695 9.70851 13.258 9.71183 12.0881H9.63228C9.45993 12.3731 9.2445 12.6184 8.98597 12.8239C8.73076 13.0294 8.44407 13.1884 8.12589 13.3011C7.80771 13.4138 7.46798 13.4702 7.10671 13.4702C6.52006 13.4702 5.98645 13.326 5.50586 13.0376C5.02527 12.7493 4.64246 12.3532 4.35742 11.8494C4.07238 11.3456 3.92987 10.7706 3.92987 10.1243C3.92987 9.4813 4.0757 8.89796 4.36737 8.37429C4.66235 7.85062 5.07333 7.43632 5.60032 7.13139C6.13062 6.82315 6.75207 6.67235 7.46467 6.67898ZM7.46964 7.97159C7.08185 7.97159 6.73219 8.06771 6.42063 8.25994C6.11239 8.44886 5.86879 8.70573 5.68981 9.03054C5.51083 9.35204 5.42134 9.70999 5.42134 10.1044C5.42134 10.4988 5.50752 10.8568 5.67987 11.1783C5.85553 11.4964 6.09416 11.75 6.39577 11.9389C6.7007 12.1245 7.04871 12.2173 7.43981 12.2173C7.73148 12.2173 8.00326 12.161 8.25515 12.0483C8.50704 11.9356 8.72745 11.7798 8.91637 11.581C9.10529 11.3788 9.25278 11.1501 9.35884 10.8949C9.4649 10.6397 9.51793 10.3712 9.51793 10.0895C9.51793 9.71496 9.42844 9.36695 9.24947 9.04545C9.0738 8.72396 8.83185 8.46544 8.52362 8.26989C8.21538 8.07102 7.86405 7.97159 7.46964 7.97159ZM16.3651 6.67898C16.8191 6.68229 17.2666 6.76515 17.7074 6.92756C18.1482 7.08996 18.5459 7.35511 18.9006 7.72301C19.2585 8.09091 19.5436 8.58807 19.7557 9.21449C19.9711 9.83759 20.0805 10.6132 20.0838 11.5412C20.0838 12.4328 19.9943 13.2266 19.8153 13.9226C19.6364 14.6153 19.3795 15.2003 19.0447 15.6776C18.7133 16.1548 18.3106 16.5178 17.8366 16.7663C17.3627 17.0149 16.8291 17.1392 16.2358 17.1392C15.6293 17.1392 15.0907 17.0199 14.62 16.7812C14.1494 16.5426 13.7666 16.2128 13.4716 15.7919C13.1766 15.3677 12.9927 14.8804 12.9197 14.3303H14.4361C14.5355 14.7678 14.7377 15.1224 15.0426 15.3942C15.3509 15.6626 15.7486 15.7969 16.2358 15.7969C16.9815 15.7969 17.5632 15.4721 17.9808 14.8224C18.3984 14.1695 18.6089 13.258 18.6122 12.0881H18.5327C18.3603 12.3731 18.1449 12.6184 17.8864 12.8239C17.6312 13.0294 17.3445 13.1884 17.0263 13.3011C16.7081 13.4138 16.3684 13.4702 16.0071 13.4702C15.4205 13.4702 14.8868 13.326 14.4062 13.0376C13.9257 12.7493 13.5429 12.3532 13.2578 11.8494C12.9728 11.3456 12.8303 10.7706 12.8303 10.1243C12.8303 9.4813 12.9761 8.89796 13.2678 8.37429C13.5627 7.85062 13.9737 7.43632 14.5007 7.13139C15.031 6.82315 15.6525 6.67235 16.3651 6.67898ZM16.37 7.97159C15.9822 7.97159 15.6326 8.06771 15.321 8.25994C15.0128 8.44886 14.7692 8.70573 14.5902 9.03054C14.4112 9.35204 14.3217 9.70999 14.3217 10.1044C14.3217 10.4988 14.4079 10.8568 14.5803 11.1783C14.7559 11.4964 14.9946 11.75 15.2962 11.9389C15.6011 12.1245 15.9491 12.2173 16.3402 12.2173C16.6319 12.2173 16.9036 12.161 17.1555 12.0483C17.4074 11.9356 17.6278 11.7798 17.8168 11.581C18.0057 11.3788 18.1532 11.1501 18.2592 10.8949C18.3653 10.6397 18.4183 10.3712 18.4183 10.0895C18.4183 9.71496 18.3288 9.36695 18.1499 9.04545C17.9742 8.72396 17.7322 8.46544 17.424 8.26989C17.1158 8.07102 16.7644 7.97159 16.37 7.97159Z" fill="#313944"/>
</svg>
