<svg width="24" height="24" viewBox="0 0 24 24" fill="none" xmlns="http://www.w3.org/2000/svg">
<path d="M12 4.125V7M12 4.125C11.6932 4.125 11.4444 3.87316 11.4444 3.5625C11.4444 3.25184 11.6932 3 12 3C12.3068 3 12.5556 3.25184 12.5556 3.5625C12.5556 3.87316 12.3068 4.125 12 4.125ZM9.5 16C10.8333 17.5 13.1667 17.5 14.5 16M2 12V16.5M22 12V16.5M15.8889 12C15.8889 11.6893 15.6402 11.4375 15.3333 11.4375C15.0265 11.4375 14.7778 11.6893 14.7778 12C14.7778 12.3107 15.0265 12.5625 15.3333 12.5625C15.6402 12.5625 15.8889 12.3107 15.8889 12ZM9.61111 12C9.61111 11.6893 9.36238 11.4375 9.05556 11.4375C8.74873 11.4375 8.5 11.6893 8.5 12C8.5 12.3107 8.74873 12.5625 9.05556 12.5625C9.36238 12.5625 9.61111 12.3107 9.61111 12ZM9.33333 21H14.6667C16.8758 21 18.6667 19.2091 18.6667 17V11C18.6667 8.79086 16.8758 7 14.6667 7H9.33333C7.12419 7 5.33333 8.79086 5.33333 11V17C5.33333 19.2091 7.12419 21 9.33333 21Z" stroke="#313944" stroke-width="1.5" stroke-linecap="round" stroke-linejoin="round"/>
</svg>
