<svg width="24" height="24" viewBox="0 0 24 24" fill="none" xmlns="http://www.w3.org/2000/svg">
<path d="M20.731 7.0043C20.907 7.30905 20.9998 7.65476 21 8.00672V16.0061C20.9988 16.3562 20.9055 16.6997 20.7295 17.0023C20.5534 17.3048 20.3009 17.5556 19.9971 17.7295L13.0029 21.7292C12.6984 21.9066 12.3523 22 12 22M20.731 7.0043C20.5549 6.69956 20.3019 6.44649 19.9971 6.27051L13.0029 2.2708C12.6984 2.09344 12.3523 2 12 2C11.6477 2 11.3016 2.09344 10.9971 2.2708L4.00286 6.27051C3.69814 6.44649 3.44506 6.69956 3.26904 7.0043M20.731 7.0043L11.9988 12.045M3.26904 7.0043C3.09301 7.30905 3.00023 7.65476 3 8.00672V16.0061C3.00118 16.3562 3.09448 16.6997 3.27053 17.0023C3.44657 17.3048 3.69915 17.5556 4.00286 17.7295L10.9971 21.7292C11.3016 21.9066 11.6477 22 12 22M3.26904 7.0043L11.9988 12.045M12 22L11.9988 12.045" stroke="#313944" stroke-width="1.5" stroke-linecap="round"/>
</svg>
