<svg width="24" height="24" viewBox="0 0 24 24" fill="none" xmlns="http://www.w3.org/2000/svg">
<path d="M7 5.99995H17M14.5 10.4999H10.75C10.2859 10.4999 9.84075 10.658 9.51256 10.9393C9.18437 11.2206 9 11.6021 9 11.9999C9 12.3978 9.18437 12.7793 9.51256 13.0606C9.84075 13.3419 10.2859 13.4999 10.75 13.4999H13.25C13.7141 13.4999 14.1592 13.658 14.4874 13.9393C14.8156 14.2206 15 14.6021 15 14.9999C15 15.3978 14.8156 15.7793 14.4874 16.0606C14.1592 16.3419 13.7141 16.4999 13.25 16.4999H9M12 8.99995V17.9999M20.9942 2.86765L20.3337 2.50288L19.6644 2.12935C19.515 2.04475 19.3467 2.00032 19.1755 2.00032C19.0043 2.00032 18.8359 2.04475 18.6865 2.12935L17.8788 2.59334C17.7274 2.67816 17.5572 2.72266 17.3841 2.72266C17.2111 2.72266 17.0408 2.67816 16.8894 2.59334L16.0702 2.12935C15.9224 2.0447 15.7554 2.0002 15.5856 2.0002C15.4157 2.0002 15.2488 2.0447 15.101 2.12935L14.2817 2.59334C14.1345 2.67802 13.968 2.72253 13.7986 2.72253C13.6292 2.72253 13.4627 2.67802 13.3154 2.59334L12.4846 2.12935C12.3356 2.04527 12.1678 2.00114 11.9971 2.00114C11.8265 2.00114 11.6587 2.04527 11.5096 2.12935L10.6875 2.59334C10.5381 2.67794 10.3698 2.72237 10.1986 2.72237C10.0274 2.72237 9.85901 2.67794 9.70962 2.59334L8.89038 2.12935C8.74258 2.0447 8.57562 2.0002 8.40577 2.0002C8.23592 2.0002 8.06896 2.0447 7.92115 2.12935L7.08462 2.59334C6.9384 2.67806 6.77283 2.72263 6.60433 2.72263C6.43583 2.72263 6.27025 2.67806 6.12404 2.59334L5.27596 2.12935C5.13028 2.0446 4.96517 2 4.79712 2C4.62906 2 4.46395 2.0446 4.31827 2.12935L3.67788 2.48245L3 2.86765V20.9854L4.32692 21.7208C4.47473 21.8054 4.64169 21.8499 4.81154 21.8499C4.98139 21.8499 5.14835 21.8054 5.29615 21.7208L6.11538 21.2772C6.26679 21.1924 6.43702 21.1479 6.6101 21.1479C6.78317 21.1479 6.9534 21.1924 7.10481 21.2772L7.92115 21.7412C8.06896 21.8259 8.23592 21.8704 8.40577 21.8704C8.57562 21.8704 8.74258 21.8259 8.89038 21.7412L9.70962 21.2772C9.85742 21.1926 10.0244 21.1481 10.1942 21.1481C10.3641 21.1481 10.531 21.1926 10.6788 21.2772L11.5096 21.7266C11.6574 21.8113 11.8244 21.8558 11.9942 21.8558C12.1641 21.8558 12.331 21.8113 12.4788 21.7266L13.3038 21.2772C13.4532 21.1926 13.6216 21.1482 13.7928 21.1482C13.964 21.1482 14.1323 21.1926 14.2817 21.2772L15.101 21.7412C15.2488 21.8259 15.4157 21.8704 15.5856 21.8704C15.7554 21.8704 15.9224 21.8259 16.0702 21.7412L16.9096 21.2772C17.0539 21.1946 17.2169 21.1512 17.3827 21.1512C17.5485 21.1512 17.7115 21.1946 17.8558 21.2772L18.7212 21.7266C18.8674 21.8113 19.0329 21.8559 19.2014 21.8559C19.3699 21.8559 19.5355 21.8113 19.6817 21.7266L21 21V2.86765H20.9942Z" stroke="#313944" stroke-width="1.5" stroke-linecap="round" stroke-linejoin="round"/>
</svg>
