<svg width="24" height="24" viewBox="0 0 24 24" fill="none" xmlns="http://www.w3.org/2000/svg">
<path d="M15.5 13V18M15.5 13L17.5 15M15.5 13L13.5 15M19 11.2572V7L15 3H5.85575C4.29095 3 3 4.31707 3 5.91353V18.0865C3 19.6829 4.29095 21 5.85575 21H12.3888H15.6357M6 7H14M6 11H8M6 15H7M21 15.5C21 18.5376 18.5376 21 15.5 21C12.4624 21 10 18.5376 10 15.5C10 12.4624 12.4624 10 15.5 10C18.5376 10 21 12.4624 21 15.5Z" stroke="#313944" stroke-width="1.5" stroke-linecap="round" stroke-linejoin="round"/>
</svg>
