<svg width="24" height="24" viewBox="0 0 24 24" fill="none" xmlns="http://www.w3.org/2000/svg">
<path d="M20.1 3H14.7C14.2029 3 13.8 3.40294 13.8 3.9V9.3C13.8 9.79706 14.2029 10.2 14.7 10.2H20.1C20.5971 10.2 21 9.79706 21 9.3V3.9C21 3.40294 20.5971 3 20.1 3Z" stroke="#313944" stroke-width="1.5" stroke-linecap="round"/>
<path d="M20.1 13.8H14.7C14.2029 13.8 13.8 14.2029 13.8 14.7V20.1C13.8 20.5971 14.2029 21 14.7 21H20.1C20.5971 21 21 20.5971 21 20.1V14.7C21 14.2029 20.5971 13.8 20.1 13.8Z" stroke="#313944" stroke-width="1.5" stroke-linecap="round"/>
<path d="M9.3 13.8H3.9C3.40294 13.8 3 14.2029 3 14.7V20.1C3 20.5971 3.40294 21 3.9 21H9.3C9.79706 21 10.2 20.5971 10.2 20.1V14.7C10.2 14.2029 9.79706 13.8 9.3 13.8Z" stroke="#313944" stroke-width="1.5" stroke-linecap="round"/>
</svg>
