<svg width="24" height="24" viewBox="0 0 24 24" fill="none" xmlns="http://www.w3.org/2000/svg">
<path d="M6.32968 17.67C7.09077 15.3653 9.48874 13.4469 12 13.4469C14.5113 13.4469 16.9086 15.3653 17.6697 17.67M14.7158 10.716C14.7158 12.2373 13.4941 13.4474 12.0009 13.4474C10.5416 13.4474 9.31988 12.2027 9.31988 10.716C9.31988 9.19469 10.5416 7.95 12.0009 7.95C13.4941 7.95 14.7158 9.19469 14.7158 10.716ZM7 21H17C19.2091 21 21 19.2091 21 17V7C21 4.79086 19.2091 3 17 3H7C4.79086 3 3 4.79086 3 7V17C3 19.2091 4.79086 21 7 21Z" stroke="#313944" stroke-width="1.5" stroke-linecap="round"/>
</svg>
