<svg width="24" height="24" viewBox="0 0 24 24" fill="none" xmlns="http://www.w3.org/2000/svg">
<path d="M11.0948 4.92861C11.4547 4.16181 12.5453 4.16181 12.9052 4.92861L14.5544 8.44219C14.6961 8.74408 14.979 8.95546 15.3086 9.00582L19.0762 9.58146C19.8808 9.70439 20.2093 10.6858 19.6409 11.2683L16.8525 14.1263C16.6308 14.3535 16.5302 14.6724 16.5813 14.9856L17.2308 18.9675C17.3652 19.7914 16.4906 20.4076 15.76 20.0037L12.4838 18.1927C12.1827 18.0262 11.8173 18.0262 11.5162 18.1927L8.23997 20.0037C7.5094 20.4076 6.63484 19.7914 6.76923 18.9675L7.41875 14.9856C7.46985 14.6724 7.3692 14.3535 7.14755 14.1263L4.35908 11.2683C3.79066 10.6858 4.1192 9.70439 4.9238 9.58146L8.69137 9.00582C9.02102 8.95546 9.30388 8.74408 9.44557 8.44219L11.0948 4.92861Z" stroke="#313944" stroke-width="1.5" stroke-linecap="round"/>
</svg>
