<svg width="24" height="24" viewBox="0 0 24 24" fill="none" xmlns="http://www.w3.org/2000/svg">
<path d="M15.7143 8.28571L8.28571 15.7143M20.2004 10.0553L19.57 9.42211C19.2999 9.15075 19.2098 8.78895 19.2098 8.42714V7.52261C19.2098 5.98492 18.0391 4.80905 16.5082 4.80905H15.6076C15.2474 4.80905 14.8872 4.62814 14.617 4.44724L13.9867 3.81407C12.906 2.72864 11.195 2.72864 10.1143 3.81407L9.39388 4.35678C9.21377 4.62814 8.85355 4.71859 8.49333 4.71859H7.59278C6.06186 4.71859 4.89115 5.89447 4.89115 7.43216V8.33668C4.89115 8.69849 4.71104 9.0603 4.53093 9.33166L3.81049 10.0553C2.72984 11.1407 2.72984 12.8593 3.81049 13.9447L4.44087 14.5779C4.71104 14.7588 4.80109 15.1206 4.80109 15.4824V16.3869C4.80109 17.9246 5.9718 19.1005 7.50273 19.1005H8.40328C8.76349 19.1005 9.12371 19.2814 9.39388 19.4623L10.0243 20.0955C10.5646 20.7286 11.285 21 12.0055 21C12.7259 21 13.4463 20.7286 13.8966 20.1859L14.527 19.5528C14.7972 19.2814 15.1574 19.191 15.5176 19.191H16.4181C17.9491 19.191 19.1198 18.0151 19.1198 16.4774V15.5729C19.1198 15.2111 19.2999 14.8492 19.48 14.5779L20.1104 13.9447C21.2811 12.7688 21.2811 11.0503 20.2004 10.0553ZM10.2857 9.14286C10.2857 9.77404 9.77404 10.2857 9.14286 10.2857C8.51167 10.2857 8 9.77404 8 9.14286C8 8.51167 8.51167 8 9.14286 8C9.77404 8 10.2857 8.51167 10.2857 9.14286ZM16 14.8571C16 15.4883 15.4883 16 14.8571 16C14.226 16 13.7143 15.4883 13.7143 14.8571C13.7143 14.226 14.226 13.7143 14.8571 13.7143C15.4883 13.7143 16 14.226 16 14.8571Z" stroke="#313944" stroke-width="1.5" stroke-linecap="round" stroke-linejoin="round"/>
</svg>
