<svg width="24" height="24" viewBox="0 0 24 24" fill="none" xmlns="http://www.w3.org/2000/svg">
<path d="M14.7778 8.2963H10.6111C10.0954 8.2963 9.60084 8.4914 9.23618 8.83869C8.87153 9.18598 8.66667 9.65701 8.66667 10.1481C8.66667 10.6393 8.87153 11.1103 9.23618 11.4576C9.60084 11.8049 10.0954 12 10.6111 12H13.3889C13.9046 12 14.3992 12.1951 14.7638 12.5424C15.1285 12.8897 15.3333 13.3607 15.3333 13.8519C15.3333 14.343 15.1285 14.814 14.7638 15.1613C14.3992 15.5086 13.9046 15.7037 13.3889 15.7037H8.66667M12 6.44444V17.5556M5 22H19C20.6569 22 22 20.6569 22 19V5C22 3.34315 20.6569 2 19 2H5C3.34315 2 2 3.34315 2 5V19C2 20.6569 3.34315 22 5 22Z" stroke="#313944" stroke-width="1.5" stroke-linecap="round" stroke-linejoin="round"/>
</svg>
