<svg width="24" height="24" viewBox="0 0 24 24" fill="none" xmlns="http://www.w3.org/2000/svg">
<path d="M16 18.4135C17.6329 16.1891 18.9721 13.4501 19.0139 10.6484C19.0198 10.2539 18.7623 9.91012 18.3933 9.77054L16 8.86542M8 18.375C6.36996 16.1546 5.02884 13.4426 4.9862 10.6484C4.98017 10.2539 5.23766 9.91012 5.60672 9.77054L8 8.86542M3 20C4 20 5.5 21 7 21C8.5 21 10 20 12 20C14 20 15 21 17 21C19 21 20 20 21 20M3 17.5C4 17.5 5.5 18.5 7 18.5C8.5 18.5 10 17.5 12 17.5C14 17.5 15 18.5 17 18.5C19 18.5 20 17.5 21 17.5M16 8.86542L12.7075 7.62021C12.2516 7.44779 11.7484 7.44779 11.2925 7.62021L8 8.86542M16 8.86542V7C16 5.89543 15.1046 5 14 5H12M8 8.86542L8 7C8 5.89543 8.89543 5 10 5H12M12 5V2" stroke="#313944" stroke-width="1.5"/>
</svg>
