<svg width="24" height="24" viewBox="0 0 24 24" fill="none" xmlns="http://www.w3.org/2000/svg">
<path d="M3 8V5C3 3.89543 3.89543 3 5 3H8M16 3L19 3C20.1046 3 21 3.89543 21 5V8M21 16V19C21 20.1046 20.1046 21 19 21H16M8 21H5C3.89543 21 3 20.1046 3 19L3 16M17 16V18M18.5 12H14C13.4477 12 13 12.4477 13 13V18M13 9C14.5621 9 13.4379 9 15 9M16 6H17C17.5523 6 18 6.44772 18 7V8M13 6V6.5M6 6H10V10H6V6ZM6 14H10V18H6L6 14Z" stroke="#313944" stroke-width="1.5" stroke-linecap="round" stroke-linejoin="round"/>
</svg>
