<svg width="24" height="24" viewBox="0 0 24 24" fill="none" xmlns="http://www.w3.org/2000/svg">
<path d="M10.2207 17.4C11.1 19.65 13.0653 21 15.3135 21C16.3273 21 17.3412 20.7366 18.2229 20.2098L21 20.9561L20.2065 18.1902C20.7355 17.3122 21 16.3024 21 15.2927C21 13.0976 19.65 11.1 17.4 10.2M10.2207 17.4C14.1631 17.4 17.4 14.1538 17.4 10.2M10.2207 17.4C8.93429 17.4 7.68934 17.0671 6.56888 16.4012L3.083 17.3584L4.03746 13.8624C3.33199 12.7803 3 11.4902 3 10.2C3 6.24624 6.23689 3 10.1793 3C14.1216 3 17.4 6.24624 17.4 10.2M8.4 7.67024C8.77834 6.41545 11.3322 6.08084 11.8997 7.67024C12.5145 9.5106 10.1025 10.337 10.1025 11.55M10.2 13.8V14.25" stroke="#313944" stroke-width="1.5" stroke-linecap="round" stroke-linejoin="round"/>
</svg>
