<svg width="24" height="24" viewBox="0 0 24 24" fill="none" xmlns="http://www.w3.org/2000/svg">
<path d="M5.77259 7.13308V16.8669H4.33232V8.60646H4.27657L2 10.1274V8.72053L4.37413 7.13308H5.77259Z" fill="#313944"/>
<path d="M7.82318 16.8669V15.8023L11.0429 12.3897C11.3867 12.019 11.6701 11.6942 11.8931 11.4154C12.1192 11.1334 12.288 10.8657 12.3995 10.6122C12.511 10.3587 12.5668 10.0894 12.5668 9.80418C12.5668 9.48099 12.4925 9.20215 12.3438 8.96768C12.1951 8.73004 11.9922 8.54785 11.7352 8.4211C11.4781 8.29119 11.1885 8.22624 10.8663 8.22624C10.5256 8.22624 10.2283 8.29753 9.9743 8.44011C9.72031 8.5827 9.52518 8.7839 9.3889 9.04373C9.25261 9.30355 9.18447 9.60773 9.18447 9.95627H7.81388C7.81388 9.36375 7.94707 8.84569 8.21344 8.40209C8.47982 7.95849 8.84531 7.6147 9.30991 7.37072C9.77452 7.12357 10.3026 7 10.8942 7C11.492 7 12.0186 7.12199 12.4739 7.36597C12.9323 7.60678 13.29 7.93631 13.5471 8.35456C13.8042 8.76965 13.9327 9.23859 13.9327 9.76141C13.9327 10.1226 13.8661 10.4759 13.733 10.8213C13.6029 11.1667 13.3752 11.5516 13.05 11.9762C12.7248 12.3977 12.2725 12.9094 11.6933 13.5114L9.80239 15.5361V15.6074H14.0861V16.8669H7.82318Z" fill="#313944"/>
<path d="M18.6362 17C17.9982 17 17.4282 16.8875 16.9265 16.6625C16.4278 16.4376 16.0329 16.1255 15.7417 15.7262C15.4537 15.3238 15.2988 14.858 15.2771 14.3289H16.736C16.7546 14.6172 16.849 14.8676 17.0194 15.0798C17.1928 15.289 17.4189 15.4506 17.6977 15.5646C17.9765 15.6787 18.2862 15.7357 18.6269 15.7357C19.0017 15.7357 19.3331 15.6692 19.6212 15.5361C19.9123 15.403 20.14 15.2177 20.3041 14.98C20.4683 14.7392 20.5504 14.462 20.5504 14.1483C20.5504 13.8219 20.4683 13.5352 20.3041 13.288C20.1431 13.0377 19.9061 12.8413 19.5933 12.6987C19.2836 12.5561 18.9088 12.4848 18.469 12.4848H17.6652V11.2871H18.469C18.8221 11.2871 19.1318 11.2221 19.3982 11.0922C19.6676 10.9623 19.8783 10.7817 20.03 10.5504C20.1818 10.3159 20.2577 10.0418 20.2577 9.72814C20.2577 9.42712 20.1911 9.16572 20.0579 8.94392C19.9278 8.71895 19.742 8.54309 19.5004 8.41635C19.2619 8.28961 18.98 8.22624 18.6548 8.22624C18.3451 8.22624 18.0555 8.28485 17.786 8.40209C17.5196 8.51616 17.3028 8.68093 17.1355 8.89639C16.9683 9.10868 16.8785 9.36375 16.8661 9.6616H15.4769C15.4924 9.13561 15.6442 8.673 15.9322 8.27376C16.2234 7.87452 16.6074 7.56242 17.0844 7.33745C17.5614 7.11248 18.0911 7 18.6734 7C19.2836 7 19.8101 7.12199 20.253 7.36597C20.6991 7.60678 21.0429 7.92839 21.2845 8.3308C21.5292 8.73321 21.65 9.17364 21.6469 9.65209C21.65 10.1971 21.5013 10.6597 21.2008 11.0399C20.9035 11.4202 20.507 11.6752 20.0114 11.8051V11.8812C20.6433 11.9794 21.1327 12.2361 21.4796 12.6511C21.8296 13.0662 22.003 13.5811 22 14.1958C22.003 14.7313 21.8575 15.2113 21.5632 15.6359C21.2721 16.0605 20.8741 16.3948 20.3692 16.6388C19.8643 16.8796 19.2867 17 18.6362 17Z" fill="#313944"/>
</svg>
