<svg width="24" height="24" viewBox="0 0 24 24" fill="none" xmlns="http://www.w3.org/2000/svg">
<path d="M7 5.99998H17M14.5 10.5H10.75C10.2859 10.5 9.84075 10.658 9.51256 10.9393C9.18437 11.2206 9 11.6022 9 12C9 12.3978 9.18437 12.7793 9.51256 13.0606C9.84075 13.3419 10.2859 13.5 10.75 13.5H13.25C13.7141 13.5 14.1592 13.658 14.4874 13.9393C14.8156 14.2206 15 14.6022 15 15C15 15.3978 14.8156 15.7793 14.4874 16.0606C14.1592 16.3419 13.7141 16.5 13.25 16.5H9M12 8.99998V18M20.9942 3.00004L20.3337 2.63526L19.6644 2.26173C19.515 2.17713 19.3467 2.13271 19.1755 2.13271C19.0043 2.13271 18.8359 2.17713 18.6865 2.26173L17.8788 2.72573C17.7274 2.81055 17.5572 2.85505 17.3841 2.85505C17.2111 2.85505 17.0408 2.81055 16.8894 2.72573L16.0702 2.26173C15.9224 2.17708 15.7554 2.13259 15.5856 2.13259C15.4157 2.13259 15.2488 2.17708 15.101 2.26173L14.2817 2.72573C14.1345 2.8104 13.968 2.85492 13.7986 2.85492C13.6292 2.85492 13.4627 2.8104 13.3154 2.72573L12.4846 2.26173C12.3356 2.17766 12.1678 2.13352 11.9971 2.13352C11.8265 2.13352 11.6587 2.17766 11.5096 2.26173L10.6875 2.72573C10.5381 2.81033 10.3698 2.85475 10.1986 2.85475C10.0274 2.85475 9.85901 2.81033 9.70962 2.72573L8.89038 2.26173C8.74258 2.17708 8.57562 2.13259 8.40577 2.13259C8.23592 2.13259 8.06896 2.17708 7.92115 2.26173L7.08462 2.72573C6.9384 2.81045 6.77283 2.85502 6.60433 2.85502C6.43583 2.85502 6.27025 2.81045 6.12404 2.72573L5.27596 2.26173C5.13028 2.17699 4.96517 2.13239 4.79712 2.13239C4.62906 2.13239 4.46395 2.17699 4.31827 2.26173L3.67788 2.61484L3 3.00004L3.00003 20.9855L4.32695 21.7208C4.47476 21.8055 4.64172 21.85 4.81157 21.85C4.98142 21.85 5.14838 21.8055 5.29618 21.7208L6.11541 21.2773C6.26682 21.1925 6.43705 21.148 6.61012 21.148C6.7832 21.148 6.95343 21.1925 7.10484 21.2773L7.92118 21.7413C8.06899 21.8259 8.23595 21.8704 8.4058 21.8704C8.57565 21.8704 8.74261 21.8259 8.89041 21.7413L9.70964 21.2773C9.85745 21.1926 10.0244 21.1481 10.1943 21.1481C10.3641 21.1481 10.5311 21.1926 10.6789 21.2773L11.5096 21.7267C11.6575 21.8113 11.8244 21.8558 11.9943 21.8558C12.1641 21.8558 12.3311 21.8113 12.4789 21.7267L13.3039 21.2773C13.4533 21.1927 13.6216 21.1483 13.7928 21.1483C13.964 21.1483 14.1324 21.1927 14.2818 21.2773L15.101 21.7413C15.2488 21.8259 15.4158 21.8704 15.5856 21.8704C15.7555 21.8704 15.9224 21.8259 16.0702 21.7413L16.9096 21.2773C17.0539 21.1947 17.2169 21.1513 17.3827 21.1513C17.5485 21.1513 17.7115 21.1947 17.8558 21.2773L18.7212 21.7267C18.8674 21.8114 19.033 21.856 19.2015 21.856C19.37 21.856 19.5355 21.8114 19.6818 21.7267L21 21.0001L21 3.00004H20.9942Z" stroke="#313944" stroke-width="1.5" stroke-linecap="round" stroke-linejoin="round"/>
</svg>
