<svg width="24" height="24" viewBox="0 0 24 24" fill="none" xmlns="http://www.w3.org/2000/svg">
<path d="M9.40386 17.5556H14.596M11.9999 2V4M19.071 4.92893L17.5 6.49993M22 11.9999H20M4 11.9999H2M6.49994 6.5L4.92888 4.92893M8.07157 15.9284C5.90199 13.7588 5.90199 10.2412 8.07157 8.07166C10.2411 5.90208 13.7588 5.90208 15.9283 8.07166C18.0979 10.2412 18.0979 13.7588 15.9283 15.9284L15.3204 16.5363C14.6172 17.2394 14.2221 18.1932 14.2221 19.1878V19.7778C14.2221 21.0051 13.2272 22 11.9999 22C10.7727 22 9.77772 21.0051 9.77772 19.7778V19.1878C9.77772 18.1932 9.38267 17.2394 8.67946 16.5363L8.07157 15.9284Z" stroke="#313944" stroke-width="1.5" stroke-linecap="round"/>
</svg>
