<svg width="24" height="24" viewBox="0 0 24 24" fill="none" xmlns="http://www.w3.org/2000/svg">
<path d="M10 4L21 4M10 12L21 12M10 20L21 20" stroke="#313944" stroke-width="1.5" stroke-linecap="round"/>
<path d="M5.27202 2V7.09091H4.19567V3.02166H4.16584L3 3.75249V2.79794L4.2603 2H5.27202Z" fill="#313944"/>
<path d="M3.04972 15.1605V14.3849L4.86186 12.707C5.01598 12.5579 5.14524 12.4237 5.24964 12.3043C5.35571 12.185 5.43608 12.0682 5.49077 11.9538C5.54545 11.8378 5.5728 11.7127 5.5728 11.5785C5.5728 11.4293 5.53883 11.3009 5.47088 11.1932C5.40294 11.0838 5.31013 11.0001 5.19247 10.9421C5.07481 10.8825 4.94141 10.8526 4.79226 10.8526C4.63648 10.8526 4.50059 10.8841 4.38459 10.9471C4.26858 11.0101 4.1791 11.1004 4.11612 11.218C4.05315 11.3357 4.02166 11.4757 4.02166 11.6381H3C3 11.305 3.0754 11.0159 3.22621 10.7706C3.37701 10.5253 3.5883 10.3356 3.86009 10.2013C4.13187 10.0671 4.44508 10 4.79972 10C5.1643 10 5.48165 10.0646 5.75178 10.1939C6.02356 10.3215 6.23485 10.4988 6.38565 10.7259C6.53646 10.9529 6.61186 11.2131 6.61186 11.5064C6.61186 11.6986 6.57375 11.8884 6.49751 12.0756C6.42294 12.2629 6.28954 12.4709 6.0973 12.6996C5.90507 12.9266 5.63411 13.1992 5.28445 13.5174L4.54119 14.2457V14.2805H6.67898V15.1605H3.04972Z" fill="#313944"/>
<path d="M4.93146 22.2301C4.56025 22.2301 4.22964 22.1663 3.93963 22.0387C3.65128 21.9094 3.42341 21.7321 3.25604 21.5067C3.09032 21.2797 3.00497 21.0179 3 20.7212H4.08381C4.09044 20.8455 4.13104 20.9549 4.20561 21.0494C4.28184 21.1422 4.38293 21.2143 4.50888 21.2656C4.63482 21.317 4.77652 21.3427 4.93395 21.3427C5.09801 21.3427 5.24302 21.3137 5.36896 21.2557C5.49491 21.1977 5.59351 21.1173 5.66477 21.0146C5.73603 20.9118 5.77166 20.7933 5.77166 20.6591C5.77166 20.5232 5.73355 20.4031 5.65732 20.2987C5.58274 20.1926 5.47502 20.1097 5.33416 20.0501C5.19496 19.9904 5.02924 19.9606 4.837 19.9606H4.36222V19.1701H4.837C4.99941 19.1701 5.14276 19.1419 5.26705 19.0856C5.39299 19.0292 5.49077 18.9513 5.56037 18.8519C5.62997 18.7508 5.66477 18.6332 5.66477 18.4989C5.66477 18.3713 5.63411 18.2595 5.5728 18.1634C5.51314 18.0656 5.42862 17.9893 5.31925 17.9347C5.21153 17.88 5.08558 17.8526 4.94141 17.8526C4.79557 17.8526 4.66217 17.8791 4.54119 17.9322C4.42022 17.9835 4.32327 18.0573 4.25036 18.1534C4.17744 18.2495 4.13849 18.3622 4.13352 18.4915H3.10192C3.10689 18.1982 3.19058 17.9396 3.35298 17.7159C3.51539 17.4922 3.73414 17.3174 4.00923 17.1914C4.28598 17.0638 4.59837 17 4.94638 17C5.2977 17 5.60511 17.0638 5.86861 17.1914C6.1321 17.319 6.33677 17.4914 6.4826 17.7085C6.63009 17.9239 6.70301 18.1658 6.70135 18.4343C6.70301 18.7193 6.61435 18.9571 6.43537 19.1477C6.25805 19.3383 6.02687 19.4593 5.74183 19.5107V19.5504C6.11636 19.5985 6.4014 19.7286 6.59695 19.9407C6.79415 20.1512 6.89193 20.4147 6.89027 20.7312C6.89193 21.0212 6.80824 21.2789 6.6392 21.5043C6.47183 21.7296 6.24065 21.907 5.94567 22.0362C5.65069 22.1655 5.31262 22.2301 4.93146 22.2301Z" fill="#313944"/>
</svg>
