<svg width="24" height="24" viewBox="0 0 24 24" fill="none" xmlns="http://www.w3.org/2000/svg">
<path d="M8.50239 15.4145L4 19.9168M10.971 7.98824L9.60054 9.35864C9.46674 9.49244 9.39985 9.55934 9.3232 9.61068C9.25521 9.65622 9.18171 9.69259 9.1047 9.71879C9.01789 9.74833 8.92539 9.76031 8.74038 9.78425L6.50548 10.0735C5.55766 10.1962 5.08376 10.2576 4.85829 10.4826C4.66221 10.6783 4.56271 10.9494 4.58801 11.2191C4.6171 11.5292 4.94731 11.8594 5.60773 12.5198L11.397 18.3091C12.0575 18.9695 12.3877 19.2997 12.6978 19.3288C12.9675 19.3541 13.2386 19.2546 13.4343 19.0586C13.6593 18.8331 13.7206 18.3592 13.8433 17.4114L14.1326 15.1765C14.1565 14.9915 14.1685 14.899 14.1981 14.8121C14.2243 14.7351 14.2606 14.6616 14.3062 14.5936C14.3575 14.517 14.4244 14.4501 14.5582 14.3163L15.9286 12.9459C16.0027 12.8718 16.0397 12.8348 16.0802 12.8023C16.1162 12.7735 16.1543 12.7473 16.1941 12.7241C16.2389 12.698 16.2865 12.6769 16.3817 12.6346L18.627 11.6385C19.282 11.3479 19.6095 11.2027 19.7613 10.9749C19.894 10.7757 19.9446 10.5351 19.9022 10.3053C19.8536 10.0425 19.6083 9.79723 19.1177 9.3066L14.6102 4.79917C14.1196 4.30854 13.8743 4.06322 13.6115 4.01466C13.3818 3.9722 13.1411 4.02283 12.942 4.15556C12.7142 4.30734 12.5689 4.63485 12.2783 5.28987L11.2822 7.53511C11.24 7.63036 11.2189 7.67799 11.1927 7.72276C11.1695 7.76254 11.1434 7.8006 11.1145 7.83662C11.082 7.87716 11.045 7.91419 10.971 7.98824Z" stroke="#313944" stroke-width="1.5" stroke-linecap="round" stroke-linejoin="round"/>
</svg>
