<svg width="24" height="24" viewBox="0 0 24 24" fill="none" xmlns="http://www.w3.org/2000/svg">
<path d="M12 21C16.9706 21 21 16.9706 21 12C21 7.02944 16.9706 3 12 3C7.02944 3 3 7.02944 3 12C3 13.7495 3.4992 15.3824 4.36292 16.7641L3.26514 20.776L7.32343 19.6911C8.68632 20.5216 10.2873 21 12 21Z" stroke="#313944" stroke-width="1.5" stroke-linecap="round"/>
<path d="M9.75791 7.5H8.77992C8.65677 7.5 8.30179 7.68377 7.86713 8.41884C7.3238 9.33767 7.063 10.8121 9.45365 13.4404C11.8443 16.0687 14.1045 16.4319 15.0391 16.496C15.9736 16.5601 17.082 15.8336 17.2776 15.1926C17.4732 14.5515 17.3862 14.2524 17.3428 14.1242C17.2993 13.996 15.126 13.013 14.9304 13.0344C14.7348 13.0557 13.9524 14.3165 13.6699 14.3165C12.8223 14.3378 10.0187 12.2088 10.0187 11.154C10.0187 10.9403 10.8446 10.3206 10.8446 9.87188C10.8446 9.65819 9.99698 7.5 9.75791 7.5Z" stroke="#313944" stroke-width="1.5" stroke-linecap="round"/>
</svg>
