<svg width="24" height="24" viewBox="0 0 24 24" fill="none" xmlns="http://www.w3.org/2000/svg">
<path d="M5.69964 18.3C6.54529 15.7392 9.20971 13.6076 12 13.6076C14.7903 13.6076 17.454 15.7392 18.2996 18.3M21 12C21 16.9706 16.9706 21 12 21C7.02944 21 3 16.9706 3 12C3 7.02944 7.02944 3 12 3C16.9706 3 21 7.02944 21 12ZM15.0176 10.5733C15.0176 12.2636 13.6601 13.6082 12.001 13.6082C10.3795 13.6082 9.02208 12.2252 9.02208 10.5733C9.02208 8.88299 10.3795 7.5 12.001 7.5C13.6601 7.5 15.0176 8.88299 15.0176 10.5733Z" stroke="#313944" stroke-width="1.5" stroke-linecap="round"/>
</svg>
