<svg width="24" height="24" viewBox="0 0 24 24" fill="none" xmlns="http://www.w3.org/2000/svg">
<path d="M7 6.99997H17M7 12H17M7 17H13M20.9942 3L20.3337 2.63523L19.6644 2.2617C19.515 2.1771 19.3467 2.13267 19.1755 2.13267C19.0043 2.13267 18.8359 2.1771 18.6865 2.2617L17.8788 2.72569C17.7274 2.81051 17.5572 2.85502 17.3841 2.85502C17.2111 2.85502 17.0408 2.81051 16.8894 2.72569L16.0702 2.2617C15.9224 2.17705 15.7554 2.13255 15.5856 2.13255C15.4157 2.13255 15.2488 2.17705 15.101 2.2617L14.2817 2.72569C14.1345 2.81037 13.968 2.85488 13.7986 2.85488C13.6292 2.85488 13.4627 2.81037 13.3154 2.72569L12.4846 2.2617C12.3356 2.17762 12.1678 2.13349 11.9971 2.13349C11.8265 2.13349 11.6587 2.17762 11.5096 2.2617L10.6875 2.72569C10.5381 2.81029 10.3698 2.85472 10.1986 2.85472C10.0274 2.85472 9.85901 2.81029 9.70962 2.72569L8.89038 2.2617C8.74258 2.17705 8.57562 2.13255 8.40577 2.13255C8.23592 2.13255 8.06896 2.17705 7.92115 2.2617L7.08462 2.72569C6.9384 2.81041 6.77283 2.85499 6.60433 2.85499C6.43583 2.85499 6.27025 2.81041 6.12404 2.72569L5.27596 2.2617C5.13028 2.17695 4.96517 2.13235 4.79712 2.13235C4.62906 2.13235 4.46395 2.17695 4.31827 2.2617L3.67788 2.6148L3 3V21L4.32692 21.7354C4.47473 21.82 4.64169 21.8645 4.81154 21.8645C4.98139 21.8645 5.14835 21.82 5.29615 21.7354L6.11538 21.2918C6.26679 21.207 6.43702 21.1625 6.6101 21.1625C6.78317 21.1625 6.9534 21.207 7.10481 21.2918L7.92115 21.7558C8.06896 21.8404 8.23592 21.8849 8.40577 21.8849C8.57562 21.8849 8.74258 21.8404 8.89038 21.7558L9.70962 21.2918C9.85742 21.2071 10.0244 21.1626 10.1942 21.1626C10.3641 21.1626 10.531 21.2071 10.6788 21.2918L11.5096 21.7412C11.6574 21.8258 11.8244 21.8703 11.9942 21.8703C12.1641 21.8703 12.331 21.8258 12.4788 21.7412L13.3038 21.2918C13.4532 21.2072 13.6216 21.1628 13.7928 21.1628C13.964 21.1628 14.1323 21.2072 14.2817 21.2918L15.101 21.7558C15.2488 21.8404 15.4157 21.8849 15.5856 21.8849C15.7554 21.8849 15.9224 21.8404 16.0702 21.7558L16.9096 21.2918C17.0539 21.2092 17.2169 21.1658 17.3827 21.1658C17.5485 21.1658 17.7115 21.2092 17.8558 21.2918L18.7212 21.7412C18.8674 21.8259 19.0329 21.8705 19.2014 21.8705C19.3699 21.8705 19.5355 21.8259 19.6817 21.7412L21 21.0146V3H20.9942Z" stroke="#313944" stroke-width="1.5" stroke-linecap="round" stroke-linejoin="round"/>
</svg>
