<svg width="24" height="24" viewBox="0 0 24 24" fill="none" xmlns="http://www.w3.org/2000/svg">
<path d="M16.3648 5.53269C16.4522 5.68645 16.4988 5.86061 16.5 6.03812V10.0869C16.4994 10.2645 16.4531 10.4389 16.3657 10.5928C16.2782 10.7467 16.1527 10.8747 16.0015 10.9641L12.5052 12.9885C12.3526 13.0779 12.1795 13.125 12.0033 13.125M16.3648 5.53269C16.2774 5.37892 16.1522 5.25081 16.0015 5.16089L12.5052 3.13651C12.3526 3.04708 12.1795 3 12.0033 3C11.8271 3 11.6541 3.04708 11.5015 3.13651L8.00517 5.16089C7.8536 5.25048 7.72743 5.37834 7.63892 5.53205M16.3648 5.53269L12.0033 8.0625M7.63892 5.53205C7.5504 5.68575 7.50255 5.86009 7.5 6.03812V10.0869C7.50189 10.265 7.54948 10.4396 7.63806 10.5935C7.72664 10.7473 7.85316 10.875 8.00517 10.9641L11.5015 12.9885C11.6541 13.0779 11.8271 13.125 12.0033 13.125M7.63892 5.53205L12.0033 8.0625M12.0033 13.125V8.0625M20.8648 13.4077C20.9522 13.5614 20.9988 13.7356 21 13.9131V17.9619C20.9994 18.1395 20.9531 18.3139 20.8657 18.4678C20.7782 18.6217 20.6527 18.7497 20.5015 18.8391L17.0052 20.8635C16.8526 20.9529 16.6795 21 16.5033 21M20.8648 13.4077C20.7774 13.2539 20.6522 13.1258 20.5015 13.0359L17.0052 11.0115C16.8526 10.9221 16.6795 10.875 16.5033 10.875C16.3271 10.875 16.1541 10.9221 16.0015 11.0115L12.5052 13.0359C12.3536 13.1255 12.2274 13.2533 12.1389 13.407M20.8648 13.4077L16.5033 15.9375M12.1389 13.407C12.0504 13.5608 12.0025 13.7351 12 13.9131M12.1389 13.407L16.5033 15.9375M12 13.9131V17.9619M12 13.9131C11.9988 13.7356 11.9522 13.5614 11.8648 13.4077M12 17.9619C12.0019 18.14 12.0495 18.3146 12.1381 18.4685C12.2266 18.6223 12.3532 18.75 12.5052 18.8391L16.0015 20.8635C16.1541 20.9529 16.3271 21 16.5033 21M12 17.9619C11.9994 18.1395 11.9531 18.3139 11.8657 18.4678C11.7782 18.6217 11.6527 18.7497 11.5015 18.8391L8.00517 20.8635C7.85259 20.9529 7.67951 21 7.50332 21M16.5033 21V15.9375M11.8648 13.4077C11.7774 13.2539 11.6522 13.1258 11.5015 13.0359L8.00517 11.0115C7.85259 10.9221 7.67951 10.875 7.50332 10.875C7.32714 10.875 7.15406 10.9221 7.00148 11.0115L3.50517 13.0359C3.3536 13.1255 3.22743 13.2533 3.13892 13.407M11.8648 13.4077L7.50332 15.9375M3.13892 13.407C3.0504 13.5608 3.00255 13.7351 3 13.9131V17.9619C3.00189 18.14 3.04948 18.3146 3.13806 18.4685C3.22664 18.6223 3.35316 18.75 3.50517 18.8391L7.00148 20.8635C7.15406 20.9529 7.32714 21 7.50332 21M3.13892 13.407L7.50332 15.9375M7.50332 21L7.50332 15.9375" stroke="#313944" stroke-width="1.5" stroke-linecap="round" stroke-linejoin="round"/>
</svg>
