<svg width="24" height="24" viewBox="0 0 24 24" fill="none" xmlns="http://www.w3.org/2000/svg">
<path d="M9.46505 3.91836C10.1929 1.36055 13.8071 1.36055 14.535 3.91836C14.9254 5.29044 16.3309 6.1043 17.7109 5.75738C20.2834 5.11064 22.0905 8.24991 20.2458 10.161C19.2563 11.1861 19.2563 12.8139 20.2458 13.839C22.0905 15.7501 20.2834 18.8894 17.7109 18.2426C16.3309 17.8957 14.9254 18.7096 14.535 20.0816C13.8071 22.6395 10.1929 22.6395 9.46505 20.0816C9.07462 18.7096 7.66912 17.8957 6.28914 18.2426C3.71661 18.8894 1.90947 15.7501 3.75418 13.839C4.74374 12.8139 4.74374 11.1861 3.75418 10.161C1.90947 8.24991 3.71661 5.11064 6.28914 5.75738C7.66912 6.1043 9.07462 5.29044 9.46505 3.91836Z" stroke="#313944" stroke-width="1.5"/>
<path d="M15.375 12C15.375 13.8409 13.864 15.3333 12 15.3333C10.136 15.3333 8.625 13.8409 8.625 12C8.625 10.1591 10.136 8.66667 12 8.66667C13.864 8.66667 15.375 10.1591 15.375 12Z" stroke="#313944" stroke-width="1.5"/>
</svg>
