<svg width="24" height="24" viewBox="0 0 24 24" fill="none" xmlns="http://www.w3.org/2000/svg">
<path d="M14.5 8.66667H10.75C10.2859 8.66667 9.84075 8.84226 9.51256 9.15482C9.18437 9.46738 9 9.89131 9 10.3333C9 10.7754 9.18437 11.1993 9.51256 11.5118C9.84075 11.8244 10.2859 12 10.75 12H13.25C13.7141 12 14.1592 12.1756 14.4874 12.4882C14.8156 12.8007 15 13.2246 15 13.6667C15 14.1087 14.8156 14.5326 14.4874 14.8452C14.1592 15.1577 13.7141 15.3333 13.25 15.3333H9M12 7V17M21 12C21 16.9706 16.9706 21 12 21C7.02944 21 3 16.9706 3 12C3 7.02944 7.02944 3 12 3C16.9706 3 21 7.02944 21 12Z" stroke="#313944" stroke-width="1.5" stroke-linecap="round"/>
</svg>
