<svg width="24" height="24" viewBox="0 0 24 24" fill="none" xmlns="http://www.w3.org/2000/svg">
<path d="M12 14.7L12 21M8.53148 7.77732V9.69488C8.53148 9.88209 8.53148 9.9757 8.51377 10.0652C8.49807 10.1447 8.47209 10.2215 8.43654 10.2938C8.39648 10.3751 8.34014 10.4482 8.22745 10.5944L6.86625 12.3604C6.28897 13.1094 6.00033 13.4839 6 13.799C5.99972 14.0731 6.11978 14.3324 6.32617 14.5034C6.56348 14.7 7.02553 14.7 7.94963 14.7H16.0504C16.9745 14.7 17.4365 14.7 17.6738 14.5034C17.8802 14.3324 18.0003 14.0731 18 13.799C17.9997 13.4839 17.711 13.1094 17.1337 12.3604L15.7725 10.5944C15.6599 10.4482 15.6035 10.3751 15.5635 10.2938C15.5279 10.2215 15.5019 10.1447 15.4862 10.0652C15.4685 9.9757 15.4685 9.88209 15.4685 9.69488V7.77732C15.4685 7.67371 15.4685 7.6219 15.4742 7.57081C15.4792 7.52542 15.4875 7.4805 15.4991 7.43643C15.5121 7.38682 15.5307 7.33872 15.5678 7.24252L16.4417 4.9748C16.6967 4.31322 16.8242 3.98243 16.771 3.71689C16.7245 3.48468 16.5916 3.2809 16.4011 3.14985C16.1833 3 15.8401 3 15.1535 3H8.84647C8.15995 3 7.81669 3 7.59889 3.14985C7.40842 3.2809 7.2755 3.48468 7.229 3.71689C7.17584 3.98243 7.30332 4.31322 7.55829 4.9748L8.43225 7.24252C8.46932 7.33872 8.48786 7.38682 8.5009 7.43643C8.51249 7.4805 8.52082 7.52542 8.52584 7.57081C8.53148 7.6219 8.53148 7.67371 8.53148 7.77732Z" stroke="#313944" stroke-width="1.5" stroke-linecap="round" stroke-linejoin="round"/>
</svg>
