<svg width="24" height="24" viewBox="0 0 24 24" fill="none" xmlns="http://www.w3.org/2000/svg">
<path d="M6 2C7.10457 2 8 2.89543 8 4C8 5.10457 7.10457 6 6 6C4.89543 6 4 5.10457 4 4C4 2.89543 4.89543 2 6 2Z" fill="#313944"/>
<path d="M18 18C19.1046 18 20 18.8954 20 20C20 21.1046 19.1046 22 18 22C16.8954 22 16 21.1046 16 20C16 18.8954 16.8954 18 18 18Z" fill="#313944"/>
<path d="M6 18C7.10457 18 8 18.8954 8 20C8 21.1046 7.10457 22 6 22C4.89543 22 4 21.1046 4 20C4 18.8954 4.89543 18 6 18Z" fill="#313944"/>
<path d="M18 10C19.1046 10 20 10.8954 20 12C20 13.1046 19.1046 14 18 14C16.8954 14 16 13.1046 16 12C16 10.8954 16.8954 10 18 10Z" fill="#313944"/>
<path d="M6 10C7.10457 10 8 10.8954 8 12C8 13.1046 7.10457 14 6 14C4.89543 14 4 13.1046 4 12C4 10.8954 4.89543 10 6 10Z" fill="#313944"/>
<path d="M18 2C19.1046 2 20 2.89543 20 4C20 5.10457 19.1046 6 18 6C16.8954 6 16 5.10457 16 4C16 2.89543 16.8954 2 18 2Z" fill="#313944"/>
</svg>
