<svg width="24" height="24" viewBox="0 0 24 24" fill="none" xmlns="http://www.w3.org/2000/svg">
<path d="M7.55556 16.05H16.4444M9.33333 18.3H14.6667M12 5.7L13.0987 8.07009L15.5556 8.45015L13.7778 10.295L14.1975 12.9L12 11.6701L9.80255 12.9L10.2222 10.295L8.44444 8.45015L10.9013 8.07009L12 5.7ZM6 21H18C19.1046 21 20 20.1046 20 19V5C20 3.89543 19.1046 3 18 3H6C4.89543 3 4 3.89543 4 5V19C4 20.1046 4.89543 21 6 21Z" stroke="#313944" stroke-width="1.5" stroke-linecap="round" stroke-linejoin="round"/>
</svg>
