<svg width="24" height="24" viewBox="0 0 24 24" fill="none" xmlns="http://www.w3.org/2000/svg">
<path d="M9 20H16M8 7.44444C8 7.19899 8.19899 7 8.44444 7H15.5556C15.801 7 16 7.19899 16 7.44444V8.59368C16 8.71156 15.9532 8.8246 15.8698 8.90795L13.1302 11.6857C13.0468 11.7691 13 11.8821 13 12V13L11 14V12C11 11.8821 10.9532 11.7691 10.8698 11.6857L8.13017 8.90795C8.04683 8.8246 8 8.71156 8 8.59368V7.44444ZM5 17H19C20.1046 17 21 16.1046 21 15V6C21 4.89543 20.1046 4 19 4H5C3.89543 4 3 4.89543 3 6V15C3 16.1046 3.89543 17 5 17Z" stroke="#313944" stroke-width="1.5" stroke-linecap="round" stroke-linejoin="round"/>
</svg>
