<svg width="24" height="24" viewBox="0 0 24 24" fill="none" xmlns="http://www.w3.org/2000/svg">
<path d="M15.4685 9V7.77732C15.4685 7.67371 15.4685 7.6219 15.4742 7.57081C15.4792 7.52542 15.4875 7.4805 15.4991 7.43643C15.5121 7.38682 15.5307 7.33872 15.5677 7.24252L16.4417 4.9748C16.6967 4.31322 16.8242 3.98243 16.771 3.71689C16.7245 3.48468 16.5916 3.2809 16.4011 3.14985C16.1833 3 15.84 3 15.1535 3H8.84646C8.15994 3 7.81669 3 7.59888 3.14985C7.40842 3.2809 7.27549 3.48468 7.229 3.71689C7.17584 3.98243 7.30332 4.31322 7.55829 4.9748M8.22745 10.5944L6.86625 12.3604C6.28897 13.1094 6.00033 13.4839 6 13.799C5.99971 14.0731 6.11978 14.3324 6.32617 14.5034C6.56348 14.7 7.02553 14.7 7.94963 14.7H16.0504M12 14.7V21M3 4.9748L21 15" stroke="#313944" stroke-width="1.5" stroke-linecap="round" stroke-linejoin="round"/>
</svg>
