<svg width="24" height="24" viewBox="0 0 24 24" fill="none" xmlns="http://www.w3.org/2000/svg">
<path d="M16 15V6.00022C16 4.88012 16 4.51984 15.782 4.09202C15.5903 3.71569 15.2843 3.40973 14.908 3.21799C14.4802 3 13.9201 3 12.8 3H5.2C4.0799 3 3.51984 3 3.09202 3.21799C2.71569 3.40973 2.40973 3.71569 2.21799 4.09202C2 4.51984 2 4.88012 2 6.00022V12.0002C2 13.1203 2 13.5723 2.21799 14.0001C2.40973 14.3764 2.71569 14.6824 3.09202 14.8741C3.51984 15.0921 4.0799 15 5.2 15H16ZM16 15H20.4C20.9601 15 21.2401 15.0921 21.454 14.9831C21.6422 14.8872 21.7951 14.7343 21.891 14.5461C22 14.3322 22 13.5603 22 13.0002V10.6627C22 10.4182 22 10.2959 21.9724 10.1808C21.9479 10.0787 21.9075 9.98119 21.8526 9.89172C21.7908 9.7908 21.7043 9.70432 21.5314 9.53137L19.9373 7.93726C19.5914 7.59135 19.4184 7.4184 19.2166 7.29472C19.0376 7.18506 18.8425 7.10425 18.6385 7.05526C18.4083 7 18.1637 7 17.6745 7H16M9 17.5921C9 18.9728 7.88071 20.0921 6.5 20.0921C5.11929 20.0921 4 18.9728 4 17.5921C4 16.2114 5.11929 15 6.5 15C7.88071 15 9 16.2114 9 17.5921ZM20 17.5921C20 18.9728 18.8807 20.0921 17.5 20.0921C16.1193 20.0921 15 18.9728 15 17.5921C15 16.2114 16.1193 15 17.5 15C18.8807 15 20 16.2114 20 17.5921Z" stroke="#313944" stroke-width="1.5" stroke-linecap="round" stroke-linejoin="round"/>
</svg>
