<svg width="24" height="24" viewBox="0 0 24 24" fill="none" xmlns="http://www.w3.org/2000/svg">
<path d="M3 9C3 7.89543 3.89543 7 5 7H5.92963C6.59834 7 7.2228 6.6658 7.59373 6.1094L8.40627 4.8906C8.7772 4.3342 9.40166 4 10.0704 4H13.9296C14.5983 4 15.2228 4.3342 15.5937 4.8906L16.4063 6.1094C16.7772 6.6658 17.4017 7 18.0704 7H19C20.1046 7 21 7.89543 21 9V18C21 19.1046 20.1046 20 19 20H5C3.89543 20 3 19.1046 3 18V9Z" stroke="#313944" stroke-width="1.5" stroke-linecap="round"/>
<path d="M15.6 12.8889C15.6 14.8526 13.9883 16.4444 12 16.4444C10.0117 16.4444 8.4 14.8526 8.4 12.8889C8.4 10.9252 10.0117 9.33333 12 9.33333C13.9883 9.33333 15.6 10.9252 15.6 12.8889Z" stroke="#313944" stroke-width="1.5" stroke-linecap="round"/>
</svg>
