<svg width="24" height="24" viewBox="0 0 24 24" fill="none" xmlns="http://www.w3.org/2000/svg">
<path d="M7.58823 14.7482C7.14706 8.03496 10.3824 4.11888 12 3C13.6176 4.11888 16.8529 8.03496 16.4118 14.7482M7.58823 14.7482C6.55882 15.3077 4 16.972 4 21L7.90745 19.0493M7.58823 14.7482C7.676 16.0837 7.79319 17.7919 7.90745 19.0493M7.90745 19.0493C7.949 19.5067 7.99017 19.9044 8.0294 20.2028L12 19.6154L15.9706 20.2028C16.0098 19.9044 16.051 19.5067 16.0926 19.0493M16.4118 14.7482C17.4412 15.3077 20 16.972 20 21L16.0926 19.0493M16.4118 14.7482C16.324 16.0837 16.2068 17.7919 16.0926 19.0493M13.3235 10.972C13.3235 11.6672 12.731 12.2308 12 12.2308C11.269 12.2308 10.6765 11.6672 10.6765 10.972C10.6765 10.2768 11.269 9.71328 12 9.71328C12.731 9.71328 13.3235 10.2768 13.3235 10.972Z" stroke="#313944" stroke-width="1.5" stroke-linecap="round"/>
</svg>
