<svg width="24" height="24" viewBox="0 0 24 24" fill="none" xmlns="http://www.w3.org/2000/svg">
<path d="M10.6299 9.0706C10.6299 10.2099 9.69563 11.1334 8.54316 11.1334C7.39068 11.1334 6.45642 10.2099 6.45642 9.0706C6.45642 7.93133 7.39068 7.00777 8.54316 7.00777C9.69563 7.00777 10.6299 7.93133 10.6299 9.0706Z" stroke="#313944" stroke-width="1.5" stroke-linecap="round" stroke-linejoin="round"/>
<path d="M6.98186 4.16456C7.43013 2.61181 9.65618 2.61181 10.1045 4.16456C10.3449 4.9975 11.2106 5.49156 12.0605 5.28095C13.645 4.88834 14.758 6.79407 13.6218 7.9542C13.0123 8.57654 13.0123 9.56466 13.6218 10.187C14.758 11.3471 13.645 13.2529 12.0605 12.8602C11.2106 12.6496 10.3449 13.1437 10.1045 13.9766C9.65618 15.5294 7.43013 15.5294 6.98186 13.9766C6.7414 13.1437 5.87574 12.6496 5.0258 12.8602C3.44136 13.2529 2.32834 11.3471 3.46451 10.187C4.07398 9.56466 4.07398 8.57654 3.46451 7.9542C2.32834 6.79407 3.44136 4.88834 5.0258 5.28095C5.87574 5.49156 6.7414 4.9975 6.98186 4.16456Z" stroke="#313944" stroke-width="1.5" stroke-linecap="round" stroke-linejoin="round"/>
<path d="M15.7028 13.4017C15.9435 12.2967 17.4983 12.1952 17.8839 13.2593C18.0907 13.8301 18.7184 14.1357 19.3023 13.9499C20.3906 13.6034 21.257 14.8837 20.5175 15.7459C20.1209 16.2083 20.167 16.8985 20.6217 17.3054C21.4695 18.0639 20.781 19.4458 19.656 19.2438C19.0525 19.1355 18.4709 19.5201 18.3418 20.1128C18.1012 21.2178 16.5463 21.3193 16.1607 20.2552C15.9539 19.6844 15.3262 19.3788 14.7424 19.5646C13.654 19.9111 12.7876 18.6308 13.5271 17.7686C13.9237 17.3062 13.8776 16.616 13.4229 16.2091C12.5752 15.4506 13.2636 14.0687 14.3887 14.2707C14.9922 14.379 15.5737 13.9944 15.7028 13.4017Z" stroke="#313944" stroke-width="1.5" stroke-linecap="round" stroke-linejoin="round"/>
<path d="M16.8972 17.6561C17.4454 17.6561 17.8898 17.2187 17.8898 16.6791C17.8898 16.1394 17.4454 15.702 16.8972 15.702C16.349 15.702 15.9045 16.1394 15.9045 16.6791C15.9045 17.2187 16.349 17.6561 16.8972 17.6561Z" stroke="#313944" stroke-width="1.5" stroke-linecap="round" stroke-linejoin="round"/>
</svg>
