<svg width="24" height="24" viewBox="0 0 24 24" fill="none" xmlns="http://www.w3.org/2000/svg">
<path d="M18.1456 9.83612L21 10.6633V19.946C21 20.2255 20.8304 20.4936 20.5284 20.6913C19.8116 21.1606 18 21 18 21M18.0739 20.1117V3.65412C17.6672 3.43241 17.1584 3.00005 16.6722 3.00005C16.1494 3.00005 15.7893 3.54178 15.2651 3.54178C14.7409 3.54178 14.3809 3.00005 13.8581 3.00005C13.3374 3.00005 12.9789 3.54191 12.4582 3.54191C11.9361 3.54191 11.5733 3.00005 11.0512 3.00005C10.528 3.00005 10.1645 3.54183 9.64058 3.54183C9.11865 3.54183 8.75973 3 8.2389 3C7.71419 3 7.36345 3.54154 6.82831 3.54154C6.30661 3.54154 5.93585 3.00042 5.41415 3.00042C4.92819 3.00042 4.41014 3.43015 4 3.64715V20.1117C4 20.6039 4.42218 20.9999 4.90834 20.9999H19C18.5151 21.0073 18.0758 20.6076 18.0739 20.1117Z" stroke="#313944" stroke-width="1.5" stroke-linecap="round" stroke-linejoin="round"/>
<path fill-rule="evenodd" clip-rule="evenodd" d="M12.5163 11.941L14.8171 9.8155C15.2261 9.43173 14.8852 8.95055 14.4222 8.91218L8 8V15.9911L11.2211 13.1365L14.2291 15.5277L14.8171 16L14.4478 15.3387L12.5163 11.941ZM11.9766 10.462L11.0961 11.2768L10.9313 11.4332L10.7978 11.5424L10.5962 11.7255L9.36625 12.8177V9.77122L9.52816 9.79483L11.8232 10.1225C12.0022 10.1343 12.13 10.3173 11.9766 10.462Z" fill="#313944"/>
</svg>
