<svg width="24" height="24" viewBox="0 0 24 24" fill="none" xmlns="http://www.w3.org/2000/svg">
<path d="M19.2 12C19.2 13.1046 18.3046 14 17.2 14C16.0954 14 15.2 13.1046 15.2 12M19.2 12C19.2 10.8954 18.3046 10 17.2 10C16.0954 10 15.2 10.8954 15.2 12M19.2 12H21M15.2 12H3M9.6 5C9.6 6.10457 8.70457 7 7.6 7C6.49543 7 5.6 6.10457 5.6 5M9.6 5C9.6 3.89543 8.70457 3 7.6 3C6.49543 3 5.6 3.89543 5.6 5M9.6 5H21M5.6 5H3M13.6 19C13.6 20.1046 12.7046 21 11.6 21C10.4954 21 9.6 20.1046 9.6 19M13.6 19C13.6 17.8954 12.7046 17 11.6 17C10.4954 17 9.6 17.8954 9.6 19M13.6 19H21M9.6 19H3" stroke="#313944" stroke-width="1.5" stroke-linecap="round"/>
</svg>
