<svg width="24" height="24" viewBox="0 0 24 24" fill="none" xmlns="http://www.w3.org/2000/svg">
<path d="M18 18.0002L17.2526 17.9379L17.252 17.945L17.2515 17.952L18 18.0002ZM6 18.0002L6.74845 17.9521L6.748 17.945L6.74741 17.9379L6 18.0002ZM15 6V6.75H15.75V6H15ZM9 6H8.25V6.75H9V6ZM10.2474 9.9379C10.213 9.52511 9.8505 9.21837 9.43772 9.25277C9.02493 9.28717 8.71819 9.64968 8.75259 10.0625L10.2474 9.9379ZM9.25259 16.0625C9.28699 16.4752 9.6495 16.782 10.0623 16.7476C10.4751 16.7132 10.7818 16.3507 10.7474 15.9379L9.25259 16.0625ZM15.2474 10.0625C15.2818 9.64968 14.9751 9.28717 14.5623 9.25277C14.1495 9.21837 13.787 9.52511 13.7526 9.9379L15.2474 10.0625ZM13.2526 15.9379C13.2182 16.3507 13.5249 16.7132 13.9377 16.7476C14.3505 16.782 14.713 16.4752 14.7474 16.0625L13.2526 15.9379ZM20 6.75C20.4142 6.75 20.75 6.41421 20.75 6C20.75 5.58579 20.4142 5.25 20 5.25V6.75ZM4 5.25C3.58579 5.25 3.25 5.58579 3.25 6C3.25 6.41421 3.58579 6.75 4 6.75V5.25ZM18.2526 5.93772L17.2526 17.9379L18.7474 18.0625L19.7474 6.06228L18.2526 5.93772ZM17.2515 17.952C17.1997 18.7578 16.6222 19.2502 16.0051 19.2502V20.7502C17.4864 20.7502 18.6507 19.5683 18.7485 18.0483L17.2515 17.952ZM16.0051 19.2502H8V20.7502H16.0051V19.2502ZM8 19.2502C7.38046 19.2502 6.80009 18.7553 6.74845 17.9521L5.25155 18.0483C5.34943 19.5708 6.52098 20.7502 8 20.7502V19.2502ZM6.74741 17.9379L5.74741 5.93772L4.25259 6.06228L5.25259 18.0625L6.74741 17.9379ZM5 6.75H19V5.25H5V6.75ZM15.75 6V4H14.25V6H15.75ZM8.25 4V6H9.75V4H8.25ZM8.75259 10.0625L9.25259 16.0625L10.7474 15.9379L10.2474 9.9379L8.75259 10.0625ZM13.7526 9.9379L13.2526 15.9379L14.7474 16.0625L15.2474 10.0625L13.7526 9.9379ZM14 2.25H10V3.75H14V2.25ZM9 6.75H15V5.25H9V6.75ZM19 6.75H20V5.25H19V6.75ZM20 5.25H5V6.75H20V5.25ZM4 6.75H5V5.25H4V6.75ZM9.75 4C9.75 3.86193 9.86193 3.75 10 3.75V2.25C9.0335 2.25 8.25 3.0335 8.25 4H9.75ZM15.75 4C15.75 3.0335 14.9665 2.25 14 2.25V3.75C14.1381 3.75 14.25 3.86193 14.25 4H15.75Z" fill="#313944"/>
</svg>
