<svg width="24" height="24" viewBox="0 0 24 24" fill="none" xmlns="http://www.w3.org/2000/svg">
<path d="M6.40524 14.5714H8.12375C8.70824 14.5714 9.28 14.7422 9.76878 15.0627L11.1345 15.9582C11.4604 16.1719 11.8416 16.2857 12.2312 16.2857H13.6284C14.2596 16.2857 14.7712 16.7974 14.7712 17.4286V17.4286M11.634 18.5714H13.6284C14.2596 18.5714 14.7712 18.0598 14.7712 17.4286V17.4286M14.7712 17.4286L18.56 16.5085C19.0749 16.3834 19.5995 16.6869 19.7541 17.1936V17.1936C19.8955 17.6575 19.6853 18.1605 19.2533 18.3808L12.9323 21.6046C12.4377 21.8568 11.8606 21.8921 11.339 21.7021L7.45099 20.2857H6.40524M14.5 3.66667H10.75C10.2859 3.66667 9.84075 3.84226 9.51256 4.15482C9.18437 4.46738 9 4.89131 9 5.33333C9 5.77536 9.18437 6.19928 9.51256 6.51184C9.84075 6.82441 10.2859 7 10.75 7H13.25C13.7141 7 14.1592 7.17559 14.4874 7.48816C14.8156 7.80072 15 8.22464 15 8.66667C15 9.10869 14.8156 9.53262 14.4874 9.84518C14.1592 10.1577 13.7141 10.3333 13.25 10.3333H9M12 2V12M5.57325 20.8571V20.8571C6.03275 20.8571 6.40524 20.4846 6.40524 20.0252V15C6.40524 14.4477 5.95752 14 5.40524 14H5.12942C4.5291 14 4.06408 14.5252 4.13678 15.1211L4.74739 20.1259C4.79832 20.5433 5.15273 20.8571 5.57325 20.8571Z" stroke="#313944" stroke-width="1.5" stroke-linecap="round"/>
</svg>
