<svg width="24" height="24" viewBox="0 0 24 24" fill="none" xmlns="http://www.w3.org/2000/svg">
<path d="M12 3V21M12 21C10.6412 21 8.13692 21 8.13692 21M12 21C13.3588 21 15.8631 21 15.8631 21M18.2308 4.97C16.1665 4.65611 14.0845 4.49906 12 4.5C9.88523 4.5 7.80462 4.66 5.76923 4.97M18.2308 4.97C19.1631 5.113 20.0862 5.287 21 5.49M18.2308 4.97L20.6492 15.696C20.7618 16.195 20.5514 16.724 20.1055 16.898C19.5041 17.1319 18.8698 17.2509 18.2308 17.25C17.5918 17.2509 16.9574 17.1319 16.356 16.898C15.9102 16.724 15.6997 16.195 15.8114 15.696L18.2308 4.971V4.97ZM5.76923 4.97C4.83692 5.113 3.91385 5.287 3 5.49M5.76923 4.97L8.18769 15.696C8.30031 16.195 8.08985 16.724 7.644 16.898C7.04255 17.1318 6.40824 17.2509 5.76923 17.25C5.13023 17.2509 4.49591 17.1318 3.89446 16.898C3.44862 16.724 3.23815 16.195 3.34985 15.696L5.76923 4.971V4.97Z" stroke="#313944" stroke-width="1.5" stroke-linecap="round" stroke-linejoin="round"/>
</svg>
