<svg width="24" height="24" viewBox="0 0 24 24" fill="none" xmlns="http://www.w3.org/2000/svg">
<path d="M3 5C3 3.89543 3.89543 3 5 3H19C20.1046 3 21 3.89543 21 5C21 6.10457 20.1046 7 19 7H5C3.89543 7 3 6.10457 3 5Z" stroke="#313944" stroke-width="1.5" stroke-linecap="round" stroke-linejoin="round"/>
<path d="M3 12C3 10.8954 3.89543 10 5 10H19C20.1046 10 21 10.8954 21 12C21 13.1046 20.1046 14 19 14H5C3.89543 14 3 13.1046 3 12Z" stroke="#313944" stroke-width="1.5" stroke-linecap="round" stroke-linejoin="round"/>
<path d="M3 19C3 17.8954 3.89543 17 5 17H19C20.1046 17 21 17.8954 21 19C21 20.1046 20.1046 21 19 21H5C3.89543 21 3 20.1046 3 19Z" stroke="#313944" stroke-width="1.5" stroke-linecap="round" stroke-linejoin="round"/>
</svg>
