<svg width="24" height="24" viewBox="0 0 24 24" fill="none" xmlns="http://www.w3.org/2000/svg">
<path d="M12 12C10.4953 10.8536 8.52033 9.728 7.38817 8.25715C7.21125 8.0273 7.07987 7.77083 7 7.49943C6.68231 6.41982 6.75 5.10462 6.75 4M12 12C13.5047 10.8536 15.4797 9.728 16.6118 8.25715C16.7887 8.0273 16.9201 7.77083 17 7.49943C17.3177 6.41982 17.25 5.10462 17.25 4M12 12C10.4953 13.1464 8.52033 14.272 7.38817 15.7429C7.21125 15.9727 7.07987 16.2292 7 16.5006C6.68231 17.5802 6.75 18.8954 6.75 20M12 12C13.5047 13.1464 15.4797 14.272 16.6118 15.7429C16.7887 15.9727 16.9201 16.2292 17 16.5006C17.3177 17.5802 17.25 18.8954 17.25 20M5 4H19M5 20H19" stroke="#313944" stroke-width="1.5" stroke-linecap="round" stroke-linejoin="round"/>
</svg>
