<svg width="24" height="24" viewBox="0 0 24 24" fill="none" xmlns="http://www.w3.org/2000/svg">
<path d="M10.5917 13.7476L7.18131 10.2123C6.65294 9.67215 5.83636 9.67215 5.35601 10.2123C4.77961 10.7033 4.77961 11.5871 5.30798 12.0782L10.4957 17.4794L10.8799 17.8722C13.3777 20.4255 17.4126 20.4746 19.9103 17.9213L20.1025 17.7249C22.6003 15.1716 22.6483 11.047 20.1505 8.4937L16.9803 5.20386C16.644 4.86014 16.1637 4.86014 15.8274 5.20386C15.1069 5.94039 15.1069 7.06974 15.8274 7.80627L18.5174 10.6051L11.5053 3.3869C11.0249 2.89588 10.2083 2.84677 9.67996 3.3869C9.19962 3.87792 9.15158 4.7422 9.67996 5.28232L14.2418 10.0157L7.85323 3.3869C7.37289 2.89588 6.55631 2.84677 6.02794 3.3869C5.54759 3.87792 5.49956 4.71266 6.02794 5.25278L12.4165 11.8816L7.18292 6.52958C6.70258 6.03856 5.886 5.98946 5.35763 6.52958C4.87729 7.0206 4.82925 7.85534 5.35763 8.39546L10.5933 13.7476M5.01907 7.65904L3.96232 7.02071C3.33788 6.6279 2.5213 6.87341 2.18506 7.51173C1.80079 8.15006 2.04096 8.9848 2.6654 9.32851L5.01907 10.7034L4.15494 10.2123C3.53049 9.81946 2.71392 10.065 2.37768 10.7033C1.9934 11.3416 2.23357 12.1764 2.85802 12.5201L9.48672 16.3991L5.06843 13.8458C4.44399 13.5021 3.62741 13.6985 3.29117 14.3369C2.95493 14.9752 3.14706 15.8099 3.77151 16.1536L10.2081 19.8854L10.6884 20.1309C13.2823 21.6531 16.4525 21.1129 18.4219 19.0016" stroke="#313944" stroke-width="1.5" stroke-miterlimit="10" stroke-linecap="round"/>
</svg>
