<svg width="24" height="24" viewBox="0 0 24 24" fill="none" xmlns="http://www.w3.org/2000/svg">
<path d="M10.2104 13.0218C10.2891 12.8648 10.3333 12.6876 10.3333 12.5C10.3333 12.3124 10.2891 12.1352 10.2104 11.9782M10.2104 13.0218C10.0189 13.4042 9.62341 13.6667 9.16667 13.6667C8.52234 13.6667 8 13.1444 8 12.5C8 11.8556 8.52234 11.3333 9.16667 11.3333C9.62341 11.3333 10.0189 11.5958 10.2104 11.9782M10.2104 13.0218L12.7896 14.3115M10.2104 11.9782L12.7896 10.6885M12.7896 14.3115C12.7109 14.4685 12.6667 14.6457 12.6667 14.8333C12.6667 15.4777 13.189 16 13.8333 16C14.4777 16 15 15.4777 15 14.8333C15 14.189 14.4777 13.6667 13.8333 13.6667C13.3766 13.6667 12.9812 13.9291 12.7896 14.3115ZM12.7896 10.6885C12.9812 11.0709 13.3766 11.3333 13.8333 11.3333C14.4777 11.3333 15 10.811 15 10.1667C15 9.52234 14.4777 9 13.8333 9C13.189 9 12.6667 9.52234 12.6667 10.1667C12.6667 10.3543 12.7109 10.5315 12.7896 10.6885ZM14 3H6.75C6.28587 3 5.84075 3.18964 5.51256 3.52721C5.18437 3.86477 5 4.32261 5 4.8V19.2C5 19.6774 5.18437 20.1352 5.51256 20.4728C5.84075 20.8104 6.28587 21 6.75 21H17.25C17.7141 21 18.1592 20.8104 18.4874 20.4728C18.8156 20.1352 19 19.6774 19 19.2V8L14 3Z" stroke="#313944" stroke-width="1.5" stroke-linecap="round"/>
</svg>
