<svg width="24" height="24" viewBox="0 0 24 24" fill="none" xmlns="http://www.w3.org/2000/svg">
<path d="M9 4H6.2C5.0799 4 4.51984 4 4.09202 4.21799C3.71569 4.40973 3.40973 4.71569 3.21799 5.09202C3 5.51984 3 6.07989 3 7.2V9.8C3 10.9201 3 11.4802 3.21799 11.908C3.40973 12.2843 3.71569 12.5903 4.09202 12.782C4.51984 13 5.0799 13 6.2 13H9V4ZM9 4H15M9 4V17C9 17.9319 9 18.3978 9.15224 18.7654C9.35523 19.2554 9.74458 19.6448 10.2346 19.8478C10.6022 20 11.0681 20 12 20C12.9319 20 13.3978 20 13.7654 19.8478C14.2554 19.6448 14.6448 19.2554 14.8478 18.7654C15 18.3978 15 17.9319 15 17V4M15 4H17.8C18.9201 4 19.4802 4 19.908 4.21799C20.2843 4.40973 20.5903 4.71569 20.782 5.09202C21 5.51984 21 6.07989 21 7.2V12.8C21 13.9201 21 14.4802 20.782 14.908C20.5903 15.2843 20.2843 15.5903 19.908 15.782C19.4802 16 18.9201 16 17.8 16H15V4Z" stroke="#313944" stroke-width="1.5" stroke-linecap="round" stroke-linejoin="round"/>
</svg>
