<svg width="24" height="24" viewBox="0 0 24 24" fill="none" xmlns="http://www.w3.org/2000/svg">
<path d="M17 16C18.6569 16 19.9712 17.3431 19.9712 19M17 16H4M17 16V2.02878M4 16V3.6C4 3.03995 4 2.75992 4.10899 2.54601C4.20487 2.35785 4.35785 2.20487 4.54601 2.10899C4.75992 2 5.03995 2 5.6 2H15.2C15.9474 2 16.5286 2 17 2.02878M4 16V22H15.2C16.8802 22 17.7202 22 18.362 21.673C18.9265 21.3854 19.3854 20.9265 19.673 20.362C20 19.7202 20 18.8802 20 17.2V6.8C20 5.11984 20 4.27976 19.673 3.63803C19.3854 3.07354 18.9265 2.6146 18.362 2.32698C18.0057 2.14546 17.5883 2.06471 17 2.02878" stroke="#313944" stroke-width="1.5" stroke-linecap="round" stroke-linejoin="round"/>
</svg>
