<svg width="24" height="24" viewBox="0 0 24 24" fill="none" xmlns="http://www.w3.org/2000/svg">
<path d="M17 20L19.0597 19.4851C20.1313 19.2172 20.7828 18.1313 20.5149 17.0597L19.5681 13.2724C19.2342 11.9369 18.0343 11 16.6577 11H7.34233C5.96573 11 4.76578 11.9369 4.4319 13.2724L3.48507 17.0597C3.21717 18.1313 3.86869 19.2172 4.94028 19.4851L7 20M5 22H19M17 22V16C17 15.4477 16.5523 15 16 15H8C7.44772 15 7 15.4477 7 16V22H17ZM12.5 19.5C12.5 19.7761 12.2761 20 12 20C11.7239 20 11.5 19.7761 11.5 19.5C11.5 19.2239 11.7239 19 12 19C12.2761 19 12.5 19.2239 12.5 19.5ZM15 6C15 7.65685 13.6569 9 12 9C10.3431 9 9 7.65685 9 6C9 4.34315 10.3431 3 12 3C13.6569 3 15 4.34315 15 6Z" stroke="#313944" stroke-width="1.5" stroke-linecap="round"/>
</svg>
