<svg width="24" height="24" viewBox="0 0 24 24" fill="none" xmlns="http://www.w3.org/2000/svg">
<path d="M7.2 15.375V17.875M16.8 14.125V16.625M15 5L12 2M12 2L9 5M12 2L12 9M16 11C17.959 11 19.0185 11.2342 19.5457 11.4159C19.6159 11.4401 19.651 11.4522 19.7523 11.5277C19.8131 11.573 19.9239 11.7059 19.9524 11.7676C20 11.8705 20 11.9267 20 12.0392V18.757C20 19.3249 20 19.6089 19.891 19.7549C19.7801 19.9034 19.6731 19.9724 19.4656 20.0295C19.2615 20.0856 18.8496 20.0238 18.0257 19.9001C17.4491 19.8135 16.7652 19.75 16 19.75C13.6 19.75 11.2 21 8 21C6.04103 21 4.98149 20.7658 4.45431 20.5841C4.3841 20.5599 4.34899 20.5478 4.24768 20.4723C4.18695 20.427 4.07609 20.2941 4.04758 20.2324C4 20.1295 4 20.0733 4 19.9608L4 13.243C4 12.6751 4 12.3911 4.10902 12.2451C4.21992 12.0966 4.32687 12.0276 4.53445 11.9705C4.73851 11.9144 5.15043 11.9762 5.97426 12.0999C6.55089 12.1865 7.23478 12.25 8 12.25C10.4 12.25 12.8 11 16 11ZM14 16C14 17.1046 13.1046 18 12 18C10.8954 18 10 17.1046 10 16C10 14.8954 10.8954 14 12 14C13.1046 14 14 14.8954 14 16Z" stroke="#313944" stroke-width="1.5" stroke-linecap="round" stroke-linejoin="round"/>
</svg>
