<svg width="24" height="24" viewBox="0 0 24 24" fill="none" xmlns="http://www.w3.org/2000/svg">
<path d="M3 12.5C7.79199 15.3568 15.2572 15.1725 20.9707 12.5M5.76923 7H18.2308C19.8 7 21 8.14966 21 9.65306V17.3469C21 18.8503 19.8 20 18.2308 20H5.76923C4.2 20 3 18.8503 3 17.3469V9.65306C3 8.14966 4.2 7 5.76923 7ZM10.0253 4H13.9747C15.0886 4 16 4.9 16 6V7H8V6C8 4.9 8.91139 4 10.0253 4ZM13 10C13 10.5523 12.5523 11 12 11C11.4477 11 11 10.5523 11 10C11 9.44772 11.4477 9 12 9C12.5523 9 13 9.44772 13 10Z" stroke="#313944" stroke-width="1.5" stroke-miterlimit="10" stroke-linecap="round"/>
</svg>
