<svg width="24" height="24" viewBox="0 0 24 24" fill="none" xmlns="http://www.w3.org/2000/svg">
<path d="M16 13.5C11.5511 15.0348 10.0845 16.7437 9 21C7.9155 16.7437 6.4489 15.0348 2 13.5C6.4489 11.9653 7.9155 10.2564 9 6C10.0845 10.2564 11.5511 11.9653 16 13.5Z" stroke="#313944" stroke-width="1.5" stroke-linecap="round" stroke-linejoin="round"/>
<path d="M22 6.50002C19.4577 7.42084 18.6197 8.44622 18 11C17.3803 8.44622 16.5422 7.42084 14 6.50002C16.5422 5.5792 17.3803 4.55381 18 2C18.6197 4.55381 19.4577 5.5792 22 6.50002Z" stroke="#313944" stroke-width="1.5" stroke-linecap="round" stroke-linejoin="round"/>
<path d="M22 19.5C20.4112 20.0115 19.8874 20.5812 19.5 22C19.1127 20.5812 18.5889 20.0115 17 19.5C18.5889 18.9884 19.1127 18.4188 19.5 17C19.8874 18.4188 20.4112 18.9884 22 19.5Z" stroke="#313944" stroke-width="1.5" stroke-linecap="round" stroke-linejoin="round"/>
</svg>
