<svg width="24" height="24" viewBox="0 0 24 24" fill="none" xmlns="http://www.w3.org/2000/svg">
<path d="M12.8126 11.1874C12.1184 10.4931 10.9927 10.4931 10.2985 11.1874L8.5207 12.9652C7.82643 13.6594 7.82643 14.785 8.5207 15.4793C9.21497 16.1736 10.3406 16.1736 11.0349 15.4793L11.5244 14.9897M11.1874 12.8126C11.8816 13.5069 13.0073 13.5069 13.7015 12.8126L15.4793 11.0349C16.1736 10.3406 16.1736 9.21497 15.4793 8.5207C14.785 7.82643 13.6594 7.82643 12.9652 8.5207L12.4764 9.00941M5.2 19H18.8C19.9201 19 20.4802 19 20.908 18.782C21.2843 18.5903 21.5903 18.2843 21.782 17.908C22 17.4802 22 16.9201 22 15.8V8.2C22 7.0799 22 6.51984 21.782 6.09202C21.5903 5.71569 21.2843 5.40973 20.908 5.21799C20.4802 5 19.9201 5 18.8 5H5.2C4.07989 5 3.51984 5 3.09202 5.21799C2.71569 5.40973 2.40973 5.71569 2.21799 6.09202C2 6.51984 2 7.0799 2 8.2V15.8C2 16.9201 2 17.4802 2.21799 17.908C2.40973 18.2843 2.71569 18.5903 3.09202 18.782C3.51984 19 4.0799 19 5.2 19Z" stroke="#313944" stroke-width="1.5" stroke-linecap="round" stroke-linejoin="round"/>
</svg>
